<svg xmlns="http://www.w3.org/2000/svg" width="54.045" height="54.042" viewBox="0 0 54.045 54.042">
  <path id="profile_picture" data-name="profile picture" d="M27.022,0A27.021,27.021,0,1,0,54.045,27.022,27.023,27.023,0,0,0,27.022,0Zm0,8.08a8.938,8.938,0,1,1-8.937,8.938A8.938,8.938,0,0,1,27.022,8.081Zm-.006,38.9A19.832,19.832,0,0,1,14.1,42.217a3.809,3.809,0,0,1-1.337-2.9,9.014,9.014,0,0,1,9.058-9.011h10.4a9,9,0,0,1,9.043,9.011,3.8,3.8,0,0,1-1.335,2.894A19.825,19.825,0,0,1,27.016,46.979Z" transform="translate(0 -0.001)" fill="#b83058"/>
</svg>
