<svg xmlns="http://www.w3.org/2000/svg" width="22.297" height="21.516" viewBox="0 0 22.297 21.516">
  <g id="Citizen_Master" data-name="Citizen Master" transform="translate(0 -8.973)">
    <path id="Path_19594" data-name="Path 19594" d="M44.463,88.219H42.822a.327.327,0,1,0,0,.653h1.642a.327.327,0,1,0,0-.653Z" transform="translate(-40.644 -75.795)" fill="#fff"/>
    <path id="Path_19595" data-name="Path 19595" d="M44.463,140.215H42.822a.327.327,0,1,0,0,.653h1.642a.327.327,0,1,0,0-.653Z" transform="translate(-40.644 -125.526)" fill="#fff"/>
    <path id="Path_19596" data-name="Path 19596" d="M44.463,192.21H42.822a.327.327,0,1,0,0,.653h1.642a.327.327,0,1,0,0-.653Z" transform="translate(-40.644 -175.257)" fill="#fff"/>
    <path id="Path_19597" data-name="Path 19597" d="M44.463,244.206H42.822a.327.327,0,1,0,0,.653h1.642a.327.327,0,1,0,0-.653Z" transform="translate(-40.644 -224.989)" fill="#fff"/>
    <path id="Path_19598" data-name="Path 19598" d="M189.295,96.9a.327.327,0,0,0-.461.033l-.476.55a.327.327,0,0,0,0,.428l.476.55a.327.327,0,1,0,.494-.428l-.291-.336.291-.336A.327.327,0,0,0,189.295,96.9Z" transform="translate(-180.079 -84.02)" fill="#fff"/>
    <path id="Path_19599" data-name="Path 19599" d="M264.079,97.36l.291.336-.291.336a.327.327,0,0,0,.494.428l.476-.549a.327.327,0,0,0,0-.428l-.476-.549a.327.327,0,1,0-.494.428Z" transform="translate(-252.502 -84.021)" fill="#fff"/>
    <path id="Path_19600" data-name="Path 19600" d="M221.643,89.568a.327.327,0,0,0-.446.12l-1,1.734a.327.327,0,1,0,.566.325l1-1.734A.327.327,0,0,0,221.643,89.568Z" transform="translate(-210.569 -77.044)" fill="#fff"/>
    <path id="Path_19601" data-name="Path 19601" d="M21.561,21.763a.737.737,0,0,0,.736-.736V18.84a.737.737,0,0,0-.736-.736H21.3l-.768-.983a.968.968,0,0,0-.768-.374H18.55a.327.327,0,0,0,0,.653h1.213a.319.319,0,0,1,.253.123l.454.58H10.5l.454-.58a.319.319,0,0,1,.253-.123h6.035a.327.327,0,1,0,0-.653H15.31V11.464a.86.86,0,0,0-.859-.859H12.477a.327.327,0,1,0,0,.653h1.974a.206.206,0,0,1,.206.206v5.283H11.209a.968.968,0,0,0-.768.374l-.768.983H9.41a.737.737,0,0,0-.736.736v2.187a.737.737,0,0,0,.736.736h.1v.7h-.1a.737.737,0,0,0-.736.736v1.488H6V11.258h5.174a.327.327,0,0,0,0-.653H9.483l-.461-.833a1.547,1.547,0,0,0-1.354-.8H.935A.936.936,0,0,0,0,9.908V24.485a.86.86,0,0,0,.859.859H8.674v.046a.737.737,0,0,0,.736.736h.1v.7h-.1a.737.737,0,0,0-.736.736v2.187a.737.737,0,0,0,.736.736h6.733a.327.327,0,0,0,0-.653H9.41a.083.083,0,0,1-.083-.083V27.566a.083.083,0,0,1,.083-.083H21.561a.083.083,0,0,1,.083.083v2.187a.083.083,0,0,1-.083.083H17.449a.327.327,0,0,0,0,.653h4.112a.737.737,0,0,0,.736-.736V27.566a.737.737,0,0,0-.736-.736h-.1v-.7h.1a.737.737,0,0,0,.736-.736V23.2a.737.737,0,0,0-.736-.736h-.1v-.7ZM8.45,10.087l.286.517H7.49c-.457-.819-.457-.843-.553-.979h.731A.894.894,0,0,1,8.45,10.087Zm-1.993,0,.286.517H5.5c-.456-.818-.457-.843-.553-.979h.731A.894.894,0,0,1,6.457,10.087Zm-5.8-.179a.282.282,0,0,1,.282-.282H3.682a.894.894,0,0,1,.782.461l.286.517H.653Zm0,14.577V11.258h4.69V24.691H.859A.206.206,0,0,1,.653,24.485Zm8.674-3.458V18.84a.083.083,0,0,1,.083-.083H21.561a.083.083,0,0,1,.083.083v2.187a.083.083,0,0,1-.083.083H9.41A.083.083,0,0,1,9.328,21.027Zm11.485,5.8H10.159v-.7H20.813Zm.831-3.627V25.39a.083.083,0,0,1-.083.083H9.411a.083.083,0,0,1-.083-.083V23.2a.083.083,0,0,1,.083-.083H21.561A.083.083,0,0,1,21.644,23.2Zm-.831-.736H10.159v-.7H20.813Z" fill="#fff"/>
    <path id="Path_19602" data-name="Path 19602" d="M233.2,453.514h-6.237a.327.327,0,1,0,0,.653H233.2a.327.327,0,1,0,0-.653Z" transform="translate(-216.768 -425.181)" fill="#fff"/>
    <path id="Path_19603" data-name="Path 19603" d="M457.414,454.167a.327.327,0,1,0,0-.653h-.567a.327.327,0,1,0,0,.653Z" transform="translate(-436.639 -425.181)" fill="#fff"/>
    <path id="Path_19604" data-name="Path 19604" d="M413.266,454.167a.327.327,0,0,0,0-.653H412.7a.327.327,0,1,0,0,.653Z" transform="translate(-394.413 -425.181)" fill="#fff"/>
    <path id="Path_19605" data-name="Path 19605" d="M233.2,353.333h-6.237a.327.327,0,1,0,0,.653H233.2a.327.327,0,0,0,0-.653Z" transform="translate(-216.768 -329.363)" fill="#fff"/>
    <path id="Path_19606" data-name="Path 19606" d="M457.414,353.333h-.567a.327.327,0,0,0,0,.653h.567a.327.327,0,0,0,0-.653Z" transform="translate(-436.639 -329.363)" fill="#fff"/>
    <path id="Path_19607" data-name="Path 19607" d="M413.266,353.333H412.7a.327.327,0,0,0,0,.653h.567a.327.327,0,0,0,0-.653Z" transform="translate(-394.413 -329.363)" fill="#fff"/>
    <path id="Path_19608" data-name="Path 19608" d="M226.965,253.8H233.2a.327.327,0,1,0,0-.653h-6.237a.327.327,0,1,0,0,.653Z" transform="translate(-216.768 -233.543)" fill="#fff"/>
    <path id="Path_19609" data-name="Path 19609" d="M456.847,253.8h.567a.327.327,0,1,0,0-.653h-.567a.327.327,0,0,0,0,.653Z" transform="translate(-436.639 -233.543)" fill="#fff"/>
    <path id="Path_19610" data-name="Path 19610" d="M412.7,253.8h.567a.327.327,0,0,0,0-.653H412.7a.327.327,0,1,0,0,.653Z" transform="translate(-394.413 -233.543)" fill="#fff"/>
  </g>
</svg>
