<svg id="Department" xmlns="http://www.w3.org/2000/svg" width="29.889" height="29.888" viewBox="0 0 29.889 29.888">
  <g id="Group_16466" data-name="Group 16466" transform="translate(0 0)">
    <path id="Path_19173" data-name="Path 19173" d="M27.8,24.833a2.9,2.9,0,0,0,.34-1.366V22.3A2.924,2.924,0,0,0,25.8,19.44V17.863a1.753,1.753,0,0,0-1.751-1.751H15.528V13.986A7.005,7.005,0,1,0,12.247.538a.584.584,0,0,0,.45,1.077,5.836,5.836,0,0,1,6.524,9.358,4.744,4.744,0,0,0-1.7-2.019,2.9,2.9,0,0,0,.34-1.366V6.421a2.919,2.919,0,1,0-5.838,0V7.589a2.9,2.9,0,0,0,.34,1.366,4.735,4.735,0,0,0-1.7,2.019A5.838,5.838,0,0,1,9.463,4.993a.584.584,0,0,0-1.1-.4,7.009,7.009,0,0,0,5.994,9.4v2.126H5.838a1.753,1.753,0,0,0-1.751,1.751V19.44A2.924,2.924,0,0,0,1.751,22.3v1.168a2.9,2.9,0,0,0,.34,1.366A4.708,4.708,0,0,0,0,28.721V29.3a.584.584,0,0,0,.584.584H8.756A.584.584,0,0,0,9.34,29.3v-.584a4.706,4.706,0,0,0-2.092-3.888,2.9,2.9,0,0,0,.34-1.366V22.3a2.924,2.924,0,0,0-2.335-2.86V17.863a.584.584,0,0,1,.584-.584h8.523v2.16a2.924,2.924,0,0,0-2.335,2.86v1.168a2.9,2.9,0,0,0,.34,1.366,4.706,4.706,0,0,0-2.092,3.888V29.3a.584.584,0,0,0,.584.584h8.173a.584.584,0,0,0,.584-.584v-.584a4.706,4.706,0,0,0-2.092-3.888,2.9,2.9,0,0,0,.34-1.366V22.3a2.924,2.924,0,0,0-2.335-2.86v-2.16h8.523a.584.584,0,0,1,.584.584V19.44A2.924,2.924,0,0,0,22.3,22.3v1.168a2.9,2.9,0,0,0,.34,1.366,4.7,4.7,0,0,0-2.092,3.888V29.3a.584.584,0,0,0,.584.584H29.3a.584.584,0,0,0,.584-.584v-.584A4.7,4.7,0,0,0,27.8,24.833ZM13.193,6.421a1.751,1.751,0,1,1,3.5,0V7.589a1.751,1.751,0,0,1-3.5,0V6.421Zm-.078,3.44a2.911,2.911,0,0,0,3.658,0,3.552,3.552,0,0,1,1.509,1.93,5.825,5.825,0,0,1-6.677,0,3.546,3.546,0,0,1,1.509-1.93ZM8.173,28.721H1.168a3.532,3.532,0,0,1,1.673-2.982,2.911,2.911,0,0,0,3.659,0A3.531,3.531,0,0,1,8.173,28.721ZM6.421,22.3v1.168a1.751,1.751,0,1,1-3.5,0V22.3a1.751,1.751,0,1,1,3.5,0Zm12.025,6.421H11.442a3.531,3.531,0,0,1,1.673-2.982,2.911,2.911,0,0,0,3.659,0A3.532,3.532,0,0,1,18.447,28.721ZM16.7,22.3v1.168a1.751,1.751,0,1,1-3.5,0V22.3a1.751,1.751,0,1,1,3.5,0Zm6.772,0a1.751,1.751,0,1,1,3.5,0v1.168a1.751,1.751,0,1,1-3.5,0Zm-1.751,6.421a3.529,3.529,0,0,1,1.673-2.982,2.911,2.911,0,0,0,3.659,0,3.528,3.528,0,0,1,1.673,2.982Z" transform="translate(0 0)" fill="#fff"/>
    <path id="Path_19174" data-name="Path 19174" d="M167.138,35.084a.584.584,0,0,0,0-1.168h0a.584.584,0,0,0,0,1.168Z" transform="translate(-156.831 -31.936)" fill="#fff"/>
  </g>
</svg>
