<svg xmlns="http://www.w3.org/2000/svg" width="24.752" height="24.752" viewBox="0 0 24.752 24.752">
  <g id="Grievance_Master" data-name="Grievance Master" transform="translate(0 0)">
    <path id="Path_19181" data-name="Path 19181" d="M240.483,160.967a.483.483,0,1,0-.483-.483A.484.484,0,0,0,240.483,160.967Zm0,0" transform="translate(-228.398 -152.265)" fill="#fff"/>
    <path id="Path_19182" data-name="Path 19182" d="M240.483,200.967a.483.483,0,1,0-.483-.483A.484.484,0,0,0,240.483,200.967Zm0,0" transform="translate(-228.398 -190.331)" fill="#fff"/>
    <path id="Path_19183" data-name="Path 19183" d="M24.61,4.976,19.776.142A.488.488,0,0,0,19.434,0H7.251A1.452,1.452,0,0,0,5.8,1.451V2.923C5.64,2.909,5.479,2.9,5.317,2.9a5.318,5.318,0,0,0,0,10.636c.161,0,.323-.008.483-.022V23.3a1.452,1.452,0,0,0,1.45,1.45H23.3a1.452,1.452,0,0,0,1.45-1.45V5.318a.486.486,0,0,0-.142-.342ZM19.917,1.651,23.1,4.835H19.917ZM5.8,3.895a4.357,4.357,0,0,1,3.84,3.84H5.8ZM.967,8.219A4.357,4.357,0,0,1,4.834,3.895V8.219a.483.483,0,0,0,.483.483H9.64A4.35,4.35,0,0,1,.967,8.219ZM23.3,23.785H7.251a.484.484,0,0,1-.483-.483V13.335a5.318,5.318,0,0,0,0-10.233V1.451A.484.484,0,0,1,7.251.967h11.7V5.318a.483.483,0,0,0,.483.483h4.351V23.3a.484.484,0,0,1-.483.483Zm0,0" fill="#fff"/>
    <path id="Path_19184" data-name="Path 19184" d="M246.483,60.967h5.124a.483.483,0,0,0,0-.967h-5.124a.483.483,0,0,0,0,.967Zm0,0" transform="translate(-234.108 -57.099)" fill="#fff"/>
    <path id="Path_19185" data-name="Path 19185" d="M246.483,100.967h5.124a.483.483,0,0,0,0-.967h-5.124a.483.483,0,0,0,0,.967Zm0,0" transform="translate(-234.108 -95.165)" fill="#fff"/>
    <path id="Path_19186" data-name="Path 19186" d="M43.384,162.9a2.42,2.42,0,0,1-2.417-2.417.483.483,0,0,0-.967,0,3.388,3.388,0,0,0,3.384,3.384.483.483,0,1,0,0-.967Zm0,0" transform="translate(-38.067 -152.265)" fill="#fff"/>
    <path id="Path_19187" data-name="Path 19187" d="M173.488,266a1.45,1.45,0,0,0-1.2,2.26l-3.357,3.6a1.452,1.452,0,0,0-1,.06l-1.512-1.874a1.45,1.45,0,1,0-2.591-.024l-1.763,1.911a1.451,1.451,0,1,0,.692.676l1.763-1.911a1.455,1.455,0,0,0,1.192.012l1.512,1.874a1.451,1.451,0,1,0,2.492-.145l3.357-3.6a1.45,1.45,0,1,0,.42-2.838Zm-12.037,7.735a.483.483,0,1,1,.483-.483A.484.484,0,0,1,161.45,273.735Zm3.191-4.351a.483.483,0,1,1,.483.483A.484.484,0,0,1,164.641,269.384Zm3.867,4.351a.483.483,0,1,1,.483-.483A.484.484,0,0,1,168.508,273.735Zm4.979-5.8a.483.483,0,1,1,.483-.483A.484.484,0,0,1,173.488,267.934Zm0,0" transform="translate(-152.265 -253.14)" fill="#fff"/>
    <path id="Path_19188" data-name="Path 19188" d="M280,160.483a.483.483,0,0,0,.483.483h7.348a.483.483,0,1,0,0-.967h-7.348A.483.483,0,0,0,280,160.483Zm0,0" transform="translate(-266.464 -152.265)" fill="#fff"/>
    <path id="Path_19189" data-name="Path 19189" d="M287.832,200h-7.348a.483.483,0,0,0,0,.967h7.348a.483.483,0,1,0,0-.967Zm0,0" transform="translate(-266.464 -190.331)" fill="#fff"/>
  </g>
</svg>
