<svg xmlns="http://www.w3.org/2000/svg" width="22.477" height="22.477" viewBox="0 0 22.477 22.477">
  <g id="Master" transform="translate(0 0)">
    <path id="Path_19175" data-name="Path 19175" d="M8.663,7.492H1.639A1.641,1.641,0,0,1,0,5.853V1.639A1.641,1.641,0,0,1,1.639,0H8.663A1.641,1.641,0,0,1,10.3,1.639V5.853A1.641,1.641,0,0,1,8.663,7.492ZM1.639,1.4a.234.234,0,0,0-.234.234V5.853a.234.234,0,0,0,.234.234H8.663A.234.234,0,0,0,8.9,5.853V1.639A.234.234,0,0,0,8.663,1.4Zm0,0" fill="#fff"/>
    <path id="Path_19176" data-name="Path 19176" d="M8.663,226.443H1.639A1.641,1.641,0,0,1,0,224.8v-9.833a1.641,1.641,0,0,1,1.639-1.639H8.663a1.641,1.641,0,0,1,1.639,1.639V224.8A1.641,1.641,0,0,1,8.663,226.443ZM1.639,214.737a.234.234,0,0,0-.234.234V224.8a.234.234,0,0,0,.234.234H8.663A.234.234,0,0,0,8.9,224.8v-9.833a.234.234,0,0,0-.234-.234Zm0,0" transform="translate(0 -203.967)" fill="#fff"/>
    <path id="Path_19177" data-name="Path 19177" d="M286,348.824h-7.024a1.641,1.641,0,0,1-1.639-1.639v-4.214a1.641,1.641,0,0,1,1.639-1.639H286a1.641,1.641,0,0,1,1.639,1.639v4.214A1.641,1.641,0,0,1,286,348.824Zm-7.024-6.087a.234.234,0,0,0-.234.234v4.214a.234.234,0,0,0,.234.234H286a.234.234,0,0,0,.234-.234v-4.214a.234.234,0,0,0-.234-.234Zm0,0" transform="translate(-265.157 -326.348)" fill="#fff"/>
    <path id="Path_19178" data-name="Path 19178" d="M286,13.111h-7.024a1.641,1.641,0,0,1-1.639-1.639V1.639A1.641,1.641,0,0,1,278.971,0H286a1.641,1.641,0,0,1,1.639,1.639v9.833A1.641,1.641,0,0,1,286,13.111ZM278.971,1.4a.234.234,0,0,0-.234.234v9.833a.234.234,0,0,0,.234.234H286a.234.234,0,0,0,.234-.234V1.639A.234.234,0,0,0,286,1.4Zm0,0" transform="translate(-265.157)" fill="#fff"/>
  </g>
</svg>
