<svg xmlns="http://www.w3.org/2000/svg" width="31.063" height="31.062" viewBox="0 0 31.063 31.062">
  <g id="Office" transform="translate(-0.527 -280.596)">
    <path id="path9033" d="M10.885,280.6a4.146,4.146,0,0,0-4.143,4.143v1.944a1.576,1.576,0,0,0-.518,1.16,1.532,1.532,0,0,0,1.588,1.551,3.625,3.625,0,0,0,1,2.015v2.128a4.645,4.645,0,0,0-4.164,2.588H3.636a1.561,1.561,0,0,0-1.553,1.553v2.071a.518.518,0,1,0,1.035,0v-2.071a.506.506,0,0,1,.518-.518H19.167a.506.506,0,0,1,.518.518v8.8H3.119v-2.07a.518.518,0,1,0-1.035,0v3.106a2.042,2.042,0,0,0,.289,1.035H1.048a.518.518,0,0,0-.52.516v2.072a.518.518,0,0,0,.52.52H31.074a.518.518,0,0,0,.516-.52v-2.072a.518.518,0,0,0-.516-.516H27.436a2.563,2.563,0,0,0,.479-1.035h.572a1.559,1.559,0,0,0,1.551-1.552v-1.035a.518.518,0,0,0-.516-.52H27.968v-.516a.518.518,0,0,0-.517-.52H22.273a.518.518,0,0,0-.516.52V307a2.558,2.558,0,0,0,.532,1.551H20.431a2.042,2.042,0,0,0,.289-1.035v-9.836a1.561,1.561,0,0,0-1.553-1.553H18.154a4.645,4.645,0,0,0-4.164-2.588v-2.128a3.539,3.539,0,0,0,1-2.011,1.548,1.548,0,0,0,1.59-1.555,1.527,1.527,0,0,0-.518-1.158l0-1.946A4.143,4.143,0,0,0,11.92,280.6Zm0,1.035H11.92a3.086,3.086,0,0,1,3.1,3.107v1.551h-.3l-1.4-1.4a.518.518,0,0,0-.73,0,5.308,5.308,0,0,1-3.26,1.4H7.778v-1.551A3.09,3.09,0,0,1,10.885,281.631Zm2.041,4.327,1.064,1.063v1.856a2.588,2.588,0,0,1-5.177,0v-1.552H9.33A5.927,5.927,0,0,0,12.926,285.959Zm-5.148,2.4a.517.517,0,0,1,0-1.034Zm7.765-.518a.513.513,0,0,1-.518.518l0-1.034a.512.512,0,0,1,.515.517Zm-5.695,4.3a3.576,3.576,0,0,0,3.106,0v1.39s0,1.035-1.553,1.035-1.553-1.035-1.553-1.035Zm-.7,2.426a2.371,2.371,0,0,0,2.258,1.035,2.371,2.371,0,0,0,2.258-1.035h.331a3.6,3.6,0,0,1,2.968,1.553H5.846a3.6,3.6,0,0,1,2.968-1.553Zm14.673,4.653a.518.518,0,0,0-.509.524v2.071a.518.518,0,1,0,1.035,0V299.75A.517.517,0,0,0,23.817,299.226Zm2.071,0a.518.518,0,0,0-.508.524v2.071a.518.518,0,1,0,1.035,0V299.75A.517.517,0,0,0,25.888,299.226ZM11.4,300.269a1.554,1.554,0,1,0,1.556,1.555A1.561,1.561,0,0,0,11.4,300.269ZM2.593,301.3a.517.517,0,0,0-.51.525v.518a.518.518,0,1,0,1.035,0v-.518A.518.518,0,0,0,2.593,301.3Zm8.808.01a.518.518,0,1,1,0,1.035.518.518,0,0,1,0-1.035Zm11.388,3.1h4.143V307a1.535,1.535,0,0,1-1.551,1.551H24.344A1.538,1.538,0,0,1,22.789,307Zm5.179,1.035H29v.52a.5.5,0,0,1-.516.516h-.52ZM3.119,307.516H19.685a1.022,1.022,0,0,1-1.035,1.035H4.154a1.022,1.022,0,0,1-1.035-1.035Zm-1.554,2.071h28.99v1.036H1.565Z" transform="translate(0 0)" fill="#fff"/>
  </g>
</svg>
