<svg id="Post_Grievance" data-name="Post Grievance" xmlns="http://www.w3.org/2000/svg" width="24" height="24" viewBox="0 0 24 24">
  <path id="Path_19459" data-name="Path 19459" d="M17.5,24A6.5,6.5,0,1,1,24,17.5,6.508,6.508,0,0,1,17.5,24Zm0-11.5a5,5,0,1,0,5,5A5.006,5.006,0,0,0,17.5,12.5Z" fill="#fff"/>
  <path id="Path_19460" data-name="Path 19460" d="M17.5,21a.75.75,0,0,1-.75-.75v-5.5a.75.75,0,0,1,1.5,0v5.5A.75.75,0,0,1,17.5,21Z" fill="#fff"/>
  <path id="Path_19461" data-name="Path 19461" d="M20.25,18.25h-5.5a.75.75,0,0,1,0-1.5h5.5a.75.75,0,0,1,0,1.5Z" fill="#fff"/>
  <path id="Path_19462" data-name="Path 19462" d="M9.19,21H2.75A2.752,2.752,0,0,1,0,18.25V2.75A2.752,2.752,0,0,1,2.75,0h11.5A2.752,2.752,0,0,1,17,2.75V8.84a.75.75,0,0,1-1.5,0V2.75A1.252,1.252,0,0,0,14.25,1.5H2.75A1.252,1.252,0,0,0,1.5,2.75v15.5A1.252,1.252,0,0,0,2.75,19.5H9.19a.75.75,0,0,1,0,1.5Z" fill="#fff"/>
  <path id="Path_19463" data-name="Path 19463" d="M13.25,9.5H3.75a.75.75,0,0,1,0-1.5h9.5a.75.75,0,0,1,0,1.5Z" fill="#fff"/>
  <path id="Path_19464" data-name="Path 19464" d="M9.25,13.5H3.75a.75.75,0,0,1,0-1.5h5.5a.75.75,0,0,1,0,1.5Z" fill="#fff"/>
  <path id="Path_19465" data-name="Path 19465" d="M8.25,5.5H3.75a.75.75,0,0,1,0-1.5h4.5a.75.75,0,0,1,0,1.5Z" fill="#fff"/>
</svg>
