<svg id="Report" xmlns="http://www.w3.org/2000/svg" width="30.445" height="30.445" viewBox="0 0 30.445 30.445">
  <path id="Path_19615" data-name="Path 19615" d="M29.851,12.413H26.045a.6.6,0,0,0-.595.595v3a.595.595,0,0,0,1.189,0V13.6h2.616V29.256H26.64V20.47a.595.595,0,0,0-1.189,0v8.786H24.261V16.947a.6.6,0,0,0-.595-.595H19.861a.6.6,0,0,0-.595.595V29.256H18.077V21.11a.6.6,0,0,0-.595-.595H13.677a.6.6,0,0,0-.595.595v8.146H11.893V24.521a.6.6,0,0,0-.595-.595H7.492a.6.6,0,0,0-.595.595v4.735H1.784a.6.6,0,0,1-.595-.595V1.784a.6.6,0,0,1,.595-.595h15.34V5.114A1.786,1.786,0,0,0,18.908,6.9h3.925v7.314a.595.595,0,1,0,1.189,0V6.3a.6.6,0,0,0-.174-.42L18.139.174A.6.6,0,0,0,17.719,0H1.784A1.786,1.786,0,0,0,0,1.784V28.661a1.786,1.786,0,0,0,1.784,1.784H29.851a.6.6,0,0,0,.595-.595V13.008A.6.6,0,0,0,29.851,12.413Zm-11.537-7.3V2.03l3.678,3.678H18.908A.6.6,0,0,1,18.313,5.114ZM8.087,29.256v-4.14H10.7v4.14Zm6.184,0V21.7h2.616v7.552Zm6.184,0V17.542h2.616V29.256Z" fill="#fff"/>
  <path id="Path_19616" data-name="Path 19616" d="M428.595,296.079a.595.595,0,1,0-.42-.174A.6.6,0,0,0,428.595,296.079Z" transform="translate(-402.55 -277.355)" fill="#fff"/>
  <path id="Path_19617" data-name="Path 19617" d="M59.071,54.729a.6.6,0,0,0-.595.595v1.07a5.469,5.469,0,1,0,6.032,6.032h1.07a.6.6,0,0,0,.595-.595A7.109,7.109,0,0,0,59.071,54.729Zm0,11.381a4.28,4.28,0,0,1-.595-8.519V61.83a.6.6,0,0,0,.595.595H63.31A4.287,4.287,0,0,1,59.071,66.11Zm.595-4.875V55.948a5.923,5.923,0,0,1,5.288,5.288H59.666Z" transform="translate(-50.415 -51.475)" fill="#fff"/>
  <path id="Path_19618" data-name="Path 19618" d="M66.547,294.845a.6.6,0,0,0-.595-.595H54.595a.595.595,0,0,0,0,1.189H65.952A.6.6,0,0,0,66.547,294.845Z" transform="translate(-50.789 -276.753)" fill="#fff"/>
  <path id="Path_19619" data-name="Path 19619" d="M54.595,342.5a.595.595,0,1,0,0,1.189H58.4a.595.595,0,1,0,0-1.189Z" transform="translate(-50.789 -322.134)" fill="#fff"/>
  <path id="Path_19620" data-name="Path 19620" d="M168.254,342.674a.594.594,0,1,0,.42-.174A.6.6,0,0,0,168.254,342.674Z" transform="translate(-158.085 -322.134)" fill="#fff"/>
</svg>
