<svg xmlns="http://www.w3.org/2000/svg" width="22.129" height="23.187" viewBox="0 0 22.129 23.187">
  <g id="setting" transform="translate(0 0)">
    <path id="Path_19574" data-name="Path 19574" d="M142.479,158.993a4.831,4.831,0,1,1,4.83-4.831A4.836,4.836,0,0,1,142.479,158.993Zm0-8.212a3.381,3.381,0,1,0,3.381,3.381A3.385,3.385,0,0,0,142.479,150.781Zm0,0" transform="translate(-131.415 -142.569)" fill="#fff"/>
    <path id="Path_19575" data-name="Path 19575" d="M12.67,23.187H9.457a1.676,1.676,0,0,1-1.624-1.305l-.407-1.809a8.881,8.881,0,0,1-1.888-1.1l-1.761.556a1.674,1.674,0,0,1-1.955-.762L.22,16a1.689,1.689,0,0,1,.31-2.062L1.9,12.684a9.775,9.775,0,0,1-.062-1.091A9.988,9.988,0,0,1,1.894,10.5L.537,9.254A1.686,1.686,0,0,1,.215,7.195L1.827,4.408a1.675,1.675,0,0,1,1.948-.756l1.764.557a8.889,8.889,0,0,1,1.888-1.1L7.834,1.3A1.674,1.674,0,0,1,9.457,0H12.67a1.676,1.676,0,0,1,1.624,1.305L14.7,3.114a8.881,8.881,0,0,1,1.888,1.1l1.761-.556a1.676,1.676,0,0,1,1.955.762l1.6,2.77a1.689,1.689,0,0,1-.31,2.062L20.232,10.5a9.806,9.806,0,0,1,0,2.182l1.358,1.248.007.006a1.685,1.685,0,0,1,.315,2.053L20.3,18.778a1.671,1.671,0,0,1-1.949.754l-1.764-.557a8.893,8.893,0,0,1-1.888,1.1l-.408,1.81a1.672,1.672,0,0,1-1.622,1.3Zm-6.984-5.74a.724.724,0,0,1,.461.165A7.441,7.441,0,0,0,8.3,18.862a.724.724,0,0,1,.456.521l.492,2.183a.217.217,0,0,0,.21.172h3.213a.215.215,0,0,0,.209-.17l.493-2.185a.724.724,0,0,1,.456-.521,7.456,7.456,0,0,0,2.153-1.249.722.722,0,0,1,.679-.132l2.126.672a.217.217,0,0,0,.256-.089l1.612-2.787A.236.236,0,0,0,20.609,15l-1.631-1.5a.724.724,0,0,1-.226-.641,8.391,8.391,0,0,0,0-2.527.725.725,0,0,1,.226-.641l1.635-1.5A.236.236,0,0,0,20.65,7.9l-1.6-2.77a.222.222,0,0,0-.263-.1l-2.124.67a.723.723,0,0,1-.679-.132A7.442,7.442,0,0,0,13.83,4.323a.723.723,0,0,1-.456-.521l-.492-2.183a.221.221,0,0,0-.212-.17H9.457a.215.215,0,0,0-.209.17L8.756,3.8a.725.725,0,0,1-.456.521A7.435,7.435,0,0,0,6.147,5.575a.727.727,0,0,1-.679.132L3.342,5.036a.219.219,0,0,0-.256.089L1.474,7.911a.237.237,0,0,0,.049.282l1.629,1.5a.724.724,0,0,1,.226.641,8.39,8.39,0,0,0,0,2.527.725.725,0,0,1-.226.641L1.518,15a.236.236,0,0,0-.038.284l1.6,2.77a.222.222,0,0,0,.263.1l2.124-.671a.705.705,0,0,1,.218-.034Zm0,0" transform="translate(0 0)" fill="#fff"/>
  </g>
</svg>
