<svg xmlns="http://www.w3.org/2000/svg" width="22.738" height="25.461" viewBox="0 0 22.738 25.461">
  <g id="_User_Registration" data-name=" User Registration" transform="translate(-21.258 0)">
    <path id="Path_19179" data-name="Path 19179" d="M21.786,23.344H34.674a5.159,5.159,0,1,0,3.292-8.105A8.826,8.826,0,0,0,33.152,11.6,6.146,6.146,0,1,0,24.86,9,6.216,6.216,0,0,0,27.469,11.6a8.824,8.824,0,0,0-6.211,8.416v2.764A.551.551,0,0,0,21.786,23.344Zm16.055-6.956A4.067,4.067,0,1,1,34.8,20.3a3.994,3.994,0,0,1,3.043-3.913ZM25.264,6.2a5.046,5.046,0,1,1,5.031,5.031A5.036,5.036,0,0,1,25.264,6.2ZM22.345,20.021a7.753,7.753,0,0,1,7.733-7.733h.528a7.758,7.758,0,0,1,6.3,3.261A5.174,5.174,0,0,0,33.742,20.3a5.59,5.59,0,0,0,.373,1.956H22.345Z" transform="translate(0 0)" fill="#fff"/>
    <path id="Path_19180" data-name="Path 19180" d="M255.049,278.946H256.6V280.5a.559.559,0,1,0,1.118,0v-1.553h1.553a.559.559,0,1,0,0-1.118H257.72v-1.522a.559.559,0,1,0-1.118,0v1.522h-1.553a.559.559,0,1,0,0,1.118Z" transform="translate(-218.295 -258.086)" fill="#fff"/>
  </g>
</svg>
