<svg xmlns="http://www.w3.org/2000/svg" width="23.752" height="23.752" viewBox="0 0 23.752 23.752">
  <g id="User_Right_Access" data-name="User Right Access" transform="translate(-2 -2)">
    <path id="Path_19580" data-name="Path 19580" d="M6,44h.792v.792H6Z" transform="translate(-2.417 -25.374)" fill="#fff"/>
    <path id="Path_19581" data-name="Path 19581" d="M10,44h.792v.792H10Z" transform="translate(-4.833 -25.374)" fill="#fff"/>
    <path id="Path_19582" data-name="Path 19582" d="M14,44h.792v.792H14Z" transform="translate(-7.25 -25.374)" fill="#fff"/>
    <path id="Path_19583" data-name="Path 19583" d="M13.876,30.771V29.188A1.191,1.191,0,0,0,12.688,28h-9.5A1.191,1.191,0,0,0,2,29.188v1.583a1.191,1.191,0,0,0,1.188,1.188v.792A1.191,1.191,0,0,0,2,33.938v1.583a1.191,1.191,0,0,0,1.188,1.188V37.5A1.191,1.191,0,0,0,2,38.688v1.583a1.191,1.191,0,0,0,1.188,1.188h9.5a1.191,1.191,0,0,0,1.188-1.188V38.688A1.191,1.191,0,0,0,12.688,37.5v-.792a1.191,1.191,0,0,0,1.188-1.188V33.938a1.191,1.191,0,0,0-1.188-1.188v-.792A1.191,1.191,0,0,0,13.876,30.771Zm-.792,7.917v1.583a.4.4,0,0,1-.4.4h-9.5a.4.4,0,0,1-.4-.4V38.688a.4.4,0,0,1,.4-.4h9.5A.4.4,0,0,1,13.084,38.688ZM3.979,37.5v-.792h.792V37.5Zm1.583,0v-.792h4.75V37.5Zm5.542,0v-.792H11.9V37.5Zm1.979-3.563v1.583a.4.4,0,0,1-.4.4h-9.5a.4.4,0,0,1-.4-.4V33.938a.4.4,0,0,1,.4-.4h9.5A.4.4,0,0,1,13.084,33.938Zm-9.1-1.188v-.792h.792v.792Zm1.583,0v-.792h4.75v.792Zm5.542,0v-.792H11.9v.792ZM3.188,31.167a.4.4,0,0,1-.4-.4V29.188a.4.4,0,0,1,.4-.4h9.5a.4.4,0,0,1,.4.4v1.583a.4.4,0,0,1-.4.4Z" transform="translate(0 -15.707)" fill="#fff"/>
    <path id="Path_19584" data-name="Path 19584" d="M6,32h.792v.792H6Z" transform="translate(-2.417 -18.124)" fill="#fff"/>
    <path id="Path_19585" data-name="Path 19585" d="M10,32h.792v.792H10Z" transform="translate(-4.833 -18.124)" fill="#fff"/>
    <path id="Path_19586" data-name="Path 19586" d="M14,32h.792v.792H14Z" transform="translate(-7.25 -18.124)" fill="#fff"/>
    <path id="Path_19587" data-name="Path 19587" d="M6,56h.792v.792H6Z" transform="translate(-2.417 -32.623)" fill="#fff"/>
    <path id="Path_19588" data-name="Path 19588" d="M10,56h.792v.792H10Z" transform="translate(-4.833 -32.623)" fill="#fff"/>
    <path id="Path_19589" data-name="Path 19589" d="M14,56h.792v.792H14Z" transform="translate(-7.25 -32.623)" fill="#fff"/>
    <path id="Path_19590" data-name="Path 19590" d="M42.938,44h-4.75A1.188,1.188,0,0,0,37,45.188v4.75a1.188,1.188,0,0,0,1.188,1.188h4.75a1.188,1.188,0,0,0,1.188-1.188v-4.75A1.188,1.188,0,0,0,42.938,44Zm-2.771.792h.792v1.815l-.116-.116a.4.4,0,0,0-.56,0l-.116.116Zm3.167,5.146a.4.4,0,0,1-.4.4h-4.75a.4.4,0,0,1-.4-.4v-4.75a.4.4,0,0,1,.4-.4h1.188v2.771a.4.4,0,0,0,.676.28l.512-.512.512.512a.4.4,0,0,0,.28.116.391.391,0,0,0,.152-.03.4.4,0,0,0,.244-.366V44.792h1.188a.4.4,0,0,1,.4.4Z" transform="translate(-21.145 -25.374)" fill="#fff"/>
    <path id="Path_19591" data-name="Path 19591" d="M36.334,2a6.334,6.334,0,1,0,6.334,6.334A6.334,6.334,0,0,0,36.334,2Zm5.522,5.938h-1.97a10.276,10.276,0,0,0-.462-2.792,6.244,6.244,0,0,0,.918-.629,5.516,5.516,0,0,1,1.514,3.421ZM36.73,2.858a3.136,3.136,0,0,1,1.7,1.9,5.5,5.5,0,0,1-1.7.4Zm1.72.356a5.536,5.536,0,0,1,1.3.765,5.515,5.515,0,0,1-.611.418,5.68,5.68,0,0,0-.691-1.184Zm-2.511-.356v2.29a5.5,5.5,0,0,1-1.7-.4,3.137,3.137,0,0,1,1.7-1.895ZM33.527,4.4a5.515,5.515,0,0,1-.611-.418,5.536,5.536,0,0,1,1.3-.767A5.681,5.681,0,0,0,33.527,4.4Zm2.411,1.544v2H33.573a9.625,9.625,0,0,1,.4-2.438,6.3,6.3,0,0,0,1.969.44Zm0,2.788v2a6.3,6.3,0,0,0-1.968.44,9.626,9.626,0,0,1-.4-2.438Zm0,2.79v2.29a3.136,3.136,0,0,1-1.7-1.9A5.5,5.5,0,0,1,35.938,11.519Zm-1.72,1.935a5.536,5.536,0,0,1-1.3-.766,5.515,5.515,0,0,1,.611-.417,5.681,5.681,0,0,0,.691,1.183Zm2.511.356V11.519a5.5,5.5,0,0,1,1.7.4,3.137,3.137,0,0,1-1.7,1.895Zm2.411-1.54a5.515,5.515,0,0,1,.611.417,5.536,5.536,0,0,1-1.3.767,5.681,5.681,0,0,0,.691-1.185ZM36.73,10.728v-2h2.365a9.626,9.626,0,0,1-.4,2.438,6.3,6.3,0,0,0-1.969-.44Zm0-2.79v-2A6.3,6.3,0,0,0,38.7,5.5a9.625,9.625,0,0,1,.4,2.438Zm-4.4-3.421a6.245,6.245,0,0,0,.92.629,10.276,10.276,0,0,0-.464,2.792h-1.97A5.516,5.516,0,0,1,32.326,4.517ZM30.812,8.73h1.97a10.276,10.276,0,0,0,.464,2.792,6.245,6.245,0,0,0-.918.629A5.516,5.516,0,0,1,30.812,8.73Zm9.53,3.421a6.244,6.244,0,0,0-.918-.629,10.276,10.276,0,0,0,.462-2.792h1.97a5.516,5.516,0,0,1-1.514,3.421Z" transform="translate(-16.916)" fill="#fff"/>
    <path id="Path_19592" data-name="Path 19592" d="M16.792,18.979a1.188,1.188,0,0,1,1.188-1.188H20.75V17H17.979A1.982,1.982,0,0,0,16,18.979v1.583h.792Z" transform="translate(-8.458 -9.062)" fill="#fff"/>
    <path id="Path_19593" data-name="Path 19593" d="M45,36h.792v2.375H45Z" transform="translate(-25.978 -20.541)" fill="#fff"/>
  </g>
</svg>
