<svg id="delete" xmlns="http://www.w3.org/2000/svg" width="21.11" height="26" viewBox="0 0 21.11 26">
  <path id="Path_19156" data-name="Path 19156" d="M28.406,62.3a1.651,1.651,0,1,1,0,3.3h-16.5a1.651,1.651,0,1,1,0-3.3Zm0,0" transform="translate(-9.6 -58.63)" fill="#00acea" opacity="0"/>
  <path id="Path_19157" data-name="Path 19157" d="M55.345,118.325V133.34a2.448,2.448,0,0,1-2.458,2.534H41.259A2.448,2.448,0,0,1,38.8,133.34V118.3H55.345Zm0,0" transform="translate(-36.516 -110.492)" fill="#00efd1" opacity="0"/>
  <g id="Group_16452" data-name="Group 16452">
    <path id="Path_19158" data-name="Path 19158" d="M222.991,154.7a.589.589,0,0,0-.589.589V166.43a.589.589,0,1,0,1.179,0V155.292A.589.589,0,0,0,222.991,154.7Zm0,0" transform="translate(-208.833 -144.749)" fill="#6e6d80"/>
    <path id="Path_19159" data-name="Path 19159" d="M104.991,154.7a.589.589,0,0,0-.589.589V166.43a.589.589,0,1,0,1.179,0V155.292A.589.589,0,0,0,104.991,154.7Zm0,0" transform="translate(-98.032 -144.749)" fill="#6e6d80"/>
    <path id="Path_19160" data-name="Path 19160" d="M1.729,7.739v15a3.359,3.359,0,0,0,.893,2.317A3,3,0,0,0,4.8,26h11.52a3,3,0,0,0,2.176-.941,3.359,3.359,0,0,0,.893-2.317v-15a2.447,2.447,0,0,0,1.052-.607,2.331,2.331,0,0,0-1.649-3.968H15.673V2.4A2.392,2.392,0,0,0,13.262,0H7.855A2.392,2.392,0,0,0,5.444,2.4v.761H2.326a2.326,2.326,0,0,0-.6,4.574ZM16.318,24.781H4.8a1.928,1.928,0,0,1-1.851-2.04V7.793H18.17V22.741a1.928,1.928,0,0,1-1.851,2.04ZM6.661,2.4A1.173,1.173,0,0,1,7.855,1.217h5.407A1.173,1.173,0,0,1,14.455,2.4v.761H6.661ZM1.55,4.714a1.1,1.1,0,0,1,.775-.331H18.791a1.105,1.105,0,0,1,1.1,1.105,1.088,1.088,0,0,1-1.1,1.087H2.326a1.093,1.093,0,0,1-1.1-1.091,1.08,1.08,0,0,1,.321-.77Zm0,0" transform="translate(0 0.001)" fill="#6e6d80"/>
    <path id="Path_19161" data-name="Path 19161" d="M163.991,154.7a.589.589,0,0,0-.589.589V166.43a.589.589,0,0,0,1.179,0V155.292A.589.589,0,0,0,163.991,154.7Zm0,0" transform="translate(-153.433 -144.749)" fill="#6e6d80"/>
  </g>
</svg>
