<svg id="Satisfied_Citizen" data-name="Satisfied Citizen" xmlns="http://www.w3.org/2000/svg" width="70.662" height="75.63" viewBox="0 0 70.662 75.63">
  <path id="Path_19507" data-name="Path 19507" d="M229.926,271.439h1.38a2.76,2.76,0,1,1,0,5.52H213.944a3.385,3.385,0,0,1-2.058-.706,8.747,8.747,0,0,0-5.218-1.569v-17.55c4.72-5.393,10.7-5.9,10.282-13.957a2.439,2.439,0,0,1,4.764-.85c1.267,4.152,1.584,8.273-.089,12.554h12.652a2.76,2.76,0,0,1,0,5.52h-.935a2.76,2.76,0,0,1,0,5.52h-.918a2.76,2.76,0,1,1,0,5.52h-2.5Z" transform="translate(-178.623 -205.069)" fill="#ffcebf"/>
  <path id="Path_19508" data-name="Path 19508" d="M220.34,243.181c.4,7.649-4.972,8.494-9.554,13.171a2.549,2.549,0,0,0-.728,1.783v16.554a8.735,8.735,0,0,1,5.217,1.57,3.393,3.393,0,0,0,2.059.705h-3.39a3.393,3.393,0,0,1-2.059-.705,8.737,8.737,0,0,0-5.217-1.57v-17.55c4.719-5.392,10.7-5.9,10.282-13.957a2.442,2.442,0,0,1,3.883-2.092,2.287,2.287,0,0,1,.249.212A2.419,2.419,0,0,0,220.34,243.181Z" transform="translate(-178.624 -205.073)" fill="#ffb09e"/>
  <path id="Path_19509" data-name="Path 19509" d="M90.188,7.506H26.882a2.557,2.557,0,0,0-2.571,2.543V25.934a2.557,2.557,0,0,0,2.571,2.543H53.27l5.265,7.988L63.8,28.477H90.188a2.557,2.557,0,0,0,2.571-2.543V10.048a2.557,2.557,0,0,0-2.571-2.542Z" transform="translate(-23.204 -6.397)" fill="#eaf6ff"/>
  <g id="Group_16734" data-name="Group 16734" transform="translate(5.931 6.471)">
    <path id="Path_19510" data-name="Path 19510" d="M63.091,44.215,64.2,46.445a.74.74,0,0,0,.557.4l2.487.357a.73.73,0,0,1,.41,1.249l-1.8,1.735a.728.728,0,0,0-.213.648l.425,2.45A.739.739,0,0,1,65,54.058L62.771,52.9a.748.748,0,0,0-.689,0l-2.225,1.157a.739.739,0,0,1-1.074-.772l.425-2.45a.727.727,0,0,0-.213-.648l-1.8-1.735a.73.73,0,0,1,.41-1.249l2.487-.357a.74.74,0,0,0,.557-.4l1.112-2.229A.744.744,0,0,1,63.091,44.215Z" transform="translate(-56.971 -43.807)" fill="#ffde5c"/>
    <path id="Path_19511" data-name="Path 19511" d="M144.136,44.215l1.112,2.229a.74.74,0,0,0,.557.4l2.487.357a.73.73,0,0,1,.41,1.249l-1.8,1.735a.728.728,0,0,0-.213.648l.425,2.45a.739.739,0,0,1-1.074.772L143.816,52.9a.748.748,0,0,0-.689,0L140.9,54.058a.739.739,0,0,1-1.074-.772l.425-2.45a.727.727,0,0,0-.213-.648l-1.8-1.735a.73.73,0,0,1,.41-1.249l2.487-.357a.74.74,0,0,0,.557-.4l1.112-2.229a.744.744,0,0,1,1.328,0Z" transform="translate(-126.044 -43.807)" fill="#ffde5c"/>
    <path id="Path_19512" data-name="Path 19512" d="M225.183,44.215l1.112,2.229a.74.74,0,0,0,.557.4l2.487.357a.73.73,0,0,1,.41,1.249l-1.8,1.735a.727.727,0,0,0-.213.648l.425,2.45a.739.739,0,0,1-1.074.772L224.864,52.9a.748.748,0,0,0-.689,0l-2.225,1.157a.739.739,0,0,1-1.074-.772l.425-2.45a.727.727,0,0,0-.213-.648l-1.8-1.735a.73.73,0,0,1,.41-1.249l2.487-.357a.74.74,0,0,0,.557-.4l1.112-2.229A.744.744,0,0,1,225.183,44.215Z" transform="translate(-195.119 -43.807)" fill="#ffde5c"/>
    <path id="Path_19513" data-name="Path 19513" d="M306.229,44.215l1.112,2.229a.74.74,0,0,0,.557.4l2.487.357a.73.73,0,0,1,.41,1.249L309,50.187a.728.728,0,0,0-.213.648l.425,2.45a.739.739,0,0,1-1.074.772L305.909,52.9a.748.748,0,0,0-.689,0L303,54.058a.739.739,0,0,1-1.074-.772l.425-2.45a.727.727,0,0,0-.213-.648l-1.8-1.735a.73.73,0,0,1,.41-1.249l2.487-.357a.74.74,0,0,0,.557-.4l1.112-2.229A.744.744,0,0,1,306.229,44.215Z" transform="translate(-264.193 -43.807)" fill="#ffde5c"/>
    <path id="Path_19514" data-name="Path 19514" d="M387.276,44.215l1.112,2.229a.74.74,0,0,0,.557.4l2.487.357a.73.73,0,0,1,.41,1.249l-1.8,1.735a.727.727,0,0,0-.213.648l.425,2.45a.739.739,0,0,1-1.074.772L386.956,52.9a.748.748,0,0,0-.689,0l-2.225,1.157a.739.739,0,0,1-1.074-.772l.425-2.45a.727.727,0,0,0-.213-.648l-1.8-1.735a.73.73,0,0,1,.41-1.249l2.487-.357a.74.74,0,0,0,.557-.4l1.112-2.229A.744.744,0,0,1,387.276,44.215Z" transform="translate(-333.268 -43.807)" fill="#ffde5c"/>
  </g>
  <path id="Path_19515" data-name="Path 19515" d="M170.979,337.153h5.272V359.24h-5.272Z" transform="translate(-148.207 -287.35)" fill="#f5fcff"/>
  <path id="Path_19516" data-name="Path 19516" d="M170.98,337.156h3.39v22.087h-3.39Z" transform="translate(-148.208 -287.353)" fill="#d8ecfe"/>
  <path id="Path_19517" data-name="Path 19517" d="M99.734,318.462h10.524v27.481H99.734Z" transform="translate(-87.486 -271.42)" fill="#8cbdf9"/>
  <path id="Path_19518" data-name="Path 19518" d="M99.731,318.463h3.39v27.48h-3.39Z" transform="translate(-87.483 -271.421)" fill="#73a2da"/>
  <g id="Group_16735" data-name="Group 16735" transform="translate(0)">
    <path id="Path_19519" data-name="Path 19519" d="M62.584,38.412a1.845,1.845,0,0,0-1.007.483,1.845,1.845,0,0,0-1.007-.483l-2.3-.33-1.026-2.055a1.852,1.852,0,0,0-3.31,0L52.91,38.082l-2.3.33c-1.913.314-2.061,1.976-1.021,3.143l1.655,1.6-.39,2.251c-.2,2.212.977,2.4,2.677,1.944l2.058-1.07,2.058,1.07A1.875,1.875,0,0,0,60.326,45.4l-.39-2.251,1.641-1.582,1.641,1.582-.39,2.251A1.875,1.875,0,0,0,65.5,47.347l2.058-1.07,2.058,1.07c1.678.76,2.9-.2,2.677-1.944l-.39-2.251,1.641-1.582,1.641,1.582L74.8,45.4a1.875,1.875,0,0,0,2.677,1.944l2.058-1.07,2.058,1.07c1.672.723,3.038-.052,2.677-1.944l-.39-2.251L85.52,41.57l1.641,1.582-.39,2.251a1.875,1.875,0,0,0,2.677,1.944l2.058-1.07,2.058,1.07c1.848.686,2.883-.126,2.677-1.944l-.39-2.251,1.641-1.582,1.641,1.582-.39,2.251a1.875,1.875,0,0,0,2.677,1.944l2.058-1.07,2.058,1.07c1.695.8,2.95-.089,2.677-1.944l-.39-2.251,1.656-1.6c1.224-1.241.855-2.829-1.022-3.143l-2.3-.33-1.025-2.055c-.82-1.584-2.479-1.668-3.31,0L100.8,38.082l-2.3.33a1.845,1.845,0,0,0-1.007.483,1.844,1.844,0,0,0-1.007-.483l-2.3-.33-1.025-2.055a1.739,1.739,0,0,0-3.31,0l-1.025,2.055-2.3.33a1.845,1.845,0,0,0-1.007.483,1.845,1.845,0,0,0-1.007-.483l-2.3-.33-1.025-2.055c-.806-1.658-2.478-1.668-3.311,0l-1.025,2.055-2.3.33a1.846,1.846,0,0,0-1.007.483,1.843,1.843,0,0,0-1.007-.483l-2.3-.33-1.025-2.055c-.762-1.658-2.478-1.668-3.31,0l-1.025,2.055ZM58.253,41.7a1.833,1.833,0,0,0-.536,1.635l.3,1.708-1.568-.816a1.857,1.857,0,0,0-1.711,0l-1.568.815.3-1.708a1.833,1.833,0,0,0-.536-1.635l-1.244-1.2,1.73-.249a1.848,1.848,0,0,0,1.391-1l.785-1.573.785,1.573a1.847,1.847,0,0,0,1.391,1l1.73.249ZM101.3,40.248a1.847,1.847,0,0,0,1.391-1l.785-1.573.785,1.573a1.848,1.848,0,0,0,1.391,1l1.73.249-1.243,1.2a1.833,1.833,0,0,0-.536,1.635l.3,1.708-1.568-.816a1.857,1.857,0,0,0-1.711,0l-1.568.815.3-1.708a1.833,1.833,0,0,0-.536-1.635l-1.244-1.2Zm-11.972,0a1.848,1.848,0,0,0,1.391-1l.785-1.573.785,1.573a1.848,1.848,0,0,0,1.391,1l1.73.249-1.244,1.2a1.834,1.834,0,0,0-.535,1.635l.3,1.708-1.568-.815a1.857,1.857,0,0,0-1.711,0l-1.568.815.3-1.708a1.834,1.834,0,0,0-.536-1.635L87.6,40.5Zm-11.972,0a1.847,1.847,0,0,0,1.391-1l.785-1.573.785,1.573a1.847,1.847,0,0,0,1.391,1l1.73.249L82.2,41.7a1.833,1.833,0,0,0-.536,1.635l.3,1.708-1.568-.816a1.857,1.857,0,0,0-1.711,0l-1.568.815.3-1.708a1.833,1.833,0,0,0-.536-1.635l-1.244-1.2Zm-10.581-1,.785-1.573.785,1.573a1.848,1.848,0,0,0,1.391,1l1.73.249-1.244,1.2a1.834,1.834,0,0,0-.535,1.635l.3,1.708-1.568-.815a1.857,1.857,0,0,0-1.711,0l-1.568.815.3-1.708A1.834,1.834,0,0,0,64.9,41.7l-1.244-1.2,1.73-.249A1.848,1.848,0,0,0,66.777,39.246Z" transform="translate(-44.203 -29.642)" fill="#881335"/>
    <path id="Path_19520" data-name="Path 19520" d="M51.223,30.678a1.108,1.108,0,0,0,1.85,0l4.936-7.491H69.3a1.108,1.108,0,0,0,0-2.216H57.413a1.108,1.108,0,0,0-.925.5l-4.34,6.585-4.34-6.585a1.108,1.108,0,0,0-.925-.5H20.494a1.45,1.45,0,0,1-1.462-1.435V3.651a1.45,1.45,0,0,1,1.462-1.435H37.2A1.108,1.108,0,0,0,37.2,0H20.494a3.668,3.668,0,0,0-3.677,3.651V19.537a3.668,3.668,0,0,0,3.678,3.651H46.287Z" transform="translate(-16.817 0)" fill="#881335"/>
    <path id="Path_19521" data-name="Path 19521" d="M226.991,0H185.932a1.108,1.108,0,1,0,0,2.216h41.059a1.45,1.45,0,0,1,1.462,1.435V19.537a1.45,1.45,0,0,1-1.462,1.435h-8.96a1.108,1.108,0,0,0,0,2.216h8.96a3.668,3.668,0,0,0,3.678-3.651V3.651A3.668,3.668,0,0,0,226.991,0Z" transform="translate(-160.007)" fill="#881335"/>
    <path id="Path_19522" data-name="Path 19522" d="M140.613,251.247a3.872,3.872,0,0,0-3.868-3.868h-11.1a19.9,19.9,0,0,0-.4-11.769,3.547,3.547,0,0,0-6.93,1.231c.254,4.88-2.016,6.574-5.157,8.918-.94.7-1.957,1.461-2.97,2.364a1.107,1.107,0,0,0-1.048-.752h-4.164v-1.653a1.108,1.108,0,0,0-1.108-1.108H93.339a1.108,1.108,0,0,0-1.108,1.108v13.5a1.108,1.108,0,1,0,2.216,0V246.827h8.309v25.264H94.447v-7.334a1.108,1.108,0,1,0-2.216,0V273.2a1.108,1.108,0,0,0,1.108,1.108h10.525a1.108,1.108,0,0,0,1.108-1.108v-1.524h4.164a1.108,1.108,0,0,0,1.108-1.108V269.5a6.432,6.432,0,0,1,3.436,1.244,4.519,4.519,0,0,0,2.733.935h17.362a3.9,3.9,0,0,0,3.156-6.1,3.983,3.983,0,0,0,1.054-5.609,3.979,3.979,0,0,0,.923-5.512A3.867,3.867,0,0,0,140.613,251.247Zm-32.586,18.212h-3.056V249.588h3.056v19.872Zm28.718-16.56h-3.433a1.108,1.108,0,0,0,0,2.216h2.5a1.652,1.652,0,0,1,0,3.3h-2.5a1.108,1.108,0,1,0,0,2.216h1.581a1.652,1.652,0,1,1,0,3.3h-2.5a1.108,1.108,0,0,0,0,2.216h1.38a1.652,1.652,0,0,1,0,3.3H116.412a2.291,2.291,0,0,1-1.384-.477,8.907,8.907,0,0,0-4.785-1.716v-16.1a28.831,28.831,0,0,1,4.236-3.63c3.271-2.441,6.36-4.746,6.045-10.809a1.331,1.331,0,0,1,2.6-.47c1.364,4.471,1.345,8.229-.061,11.827a1.108,1.108,0,0,0,1.032,1.511h12.652a1.652,1.652,0,1,1,0,3.3Z" transform="translate(-81.091 -198.677)" fill="#881335"/>
  </g>
  <path id="Path_19523" data-name="Path 19523" d="M128.043,355.859a1.271,1.271,0,1,1,1.271-1.271A1.271,1.271,0,0,1,128.043,355.859Z" transform="translate(-110.53 -301.126)" fill="#881335"/>
</svg>
