<svg id="Received_Grievances" data-name="Received Grievances" xmlns="http://www.w3.org/2000/svg" width="66.499" height="74.863" viewBox="0 0 66.499 74.863">
  <g id="Group_16732" data-name="Group 16732" transform="translate(1.097 1.099)">
    <path id="Path_19496" data-name="Path 19496" d="M103.951,75.116a3.606,3.606,0,0,1-3.606,3.606H46.175a3.606,3.606,0,0,1-3.606-3.606V39.168c0-.981-1.068-1.921-.367-2.609L58.418,20.643l4-2.493,1.517-2.924,6.9-6.773a3.606,3.606,0,0,1,4.843,0l6.9,6.773L84.1,18.15l4.292,2.778L104.318,36.56c.7.687-.367,1.627-.367,2.609Z" transform="translate(-41.107 -7.519)" fill="#8ebaff"/>
    <path id="Path_19497" data-name="Path 19497" d="M128.286,69.41h37.351l-9.353-9.18H137.639Z" transform="translate(-114.808 -52.523)" fill="#7aa3ff"/>
    <path id="Path_19498" data-name="Path 19498" d="M126.694,107.8V83.886a3.655,3.655,0,0,0-3.655-3.655H78.971a3.655,3.655,0,0,0-3.655,3.655V107.8l20.829,14.8L100,120.482a3.606,3.606,0,0,1,3.473,0l3.855,2.118Z" transform="translate(-69.583 -69.6)" fill="#f7f9fa"/>
    <path id="Path_19499" data-name="Path 19499" d="M107.327,124.061l-3.855-2.118a3.606,3.606,0,0,0-3.473,0l-3.855,2.118L75.316,107.8V99.176l19.665,19.63a2.193,2.193,0,0,0,2.606.37L100,117.849a3.606,3.606,0,0,1,3.473,0l2.413,1.326a2.193,2.193,0,0,0,2.606-.37L122.7,104.625a3.655,3.655,0,0,0,1.073-2.587V83.885a3.655,3.655,0,0,0-3.655-3.655H124.5a3.655,3.655,0,0,1,3.655,3.655V107.8Z" transform="translate(-69.583 -69.599)" fill="#dce6eb"/>
    <path id="Path_19500" data-name="Path 19500" d="M36.1,246.162a3.606,3.606,0,0,0,3.287,3.591l23.275-18.188L37.2,206.144a3.655,3.655,0,0,0-1.095,2.609Z" transform="translate(-36.104 -177.104)" fill="#f7f9fa"/>
    <path id="Path_19501" data-name="Path 19501" d="M320.53,246.162a3.366,3.366,0,0,1-2.995,3.591l-23.275-18.188,25.467-25.422a3.426,3.426,0,0,1,.8,2.609Z" transform="translate(-256.517 -177.104)" fill="#f7f9fa"/>
    <path id="Path_19502" data-name="Path 19502" d="M446.091,208.753A3.655,3.655,0,0,0,445,206.144l-3.291,3.286v36.733a3.588,3.588,0,0,1-.724,2.166l1.823,1.425a3.606,3.606,0,0,0,3.287-3.591Z" transform="translate(-381.786 -177.104)" fill="#dce6eb"/>
    <path id="Path_19503" data-name="Path 19503" d="M39.71,383.251H96.8c1.745-1.688,1.745-1.688,3.606-3.606L69.993,362.93a3.606,3.606,0,0,0-3.473,0L36.1,379.645A3.606,3.606,0,0,0,39.71,383.251Z" transform="translate(-36.104 -310.586)" fill="#f5a837"/>
    <path id="Path_19504" data-name="Path 19504" d="M424.877,463.37v2.41a3.606,3.606,0,0,1-3.606,3.606h4.386a3.606,3.606,0,0,0,3.606-3.606Z" transform="translate(-364.957 -396.722)" fill="#d8850c"/>
  </g>
  <g id="Group_16733" data-name="Group 16733" transform="translate(0 0)">
    <path id="Path_19506" data-name="Path 19506" d="M95.1,70.162h0V32.751a4.78,4.78,0,0,0-1.412-3.38l0,0,0,0-.006-.006-4.31-4.23V22.656a1.1,1.1,0,0,0-2.193,0V34.317L67.251,54.207l-3.134-1.722a4.679,4.679,0,0,0-4.529,0l-3.134,1.722L36.529,34.317V15.388a2.562,2.562,0,0,1,2.559-2.559H84.617a2.562,2.562,0,0,1,2.559,2.559v2.6a1.1,1.1,0,1,0,2.193,0v-2.6a4.757,4.757,0,0,0-4.752-4.752H74.6l-9.56-9.383-.032-.03a4.687,4.687,0,0,0-6.315,0l-.032.03L49.1,10.636H39.088a4.757,4.757,0,0,0-4.752,4.752V25.13l-4.31,4.23-.005.006,0,0,0,0A4.781,4.781,0,0,0,28.6,32.751V45.264a1.1,1.1,0,1,0,2.193,0V32.751a2.552,2.552,0,0,1,.165-.892l3.7,3.69L54.452,55.307l-23.656,13V50.043a1.1,1.1,0,0,0-2.193,0V70.16h0c0,.006,0,.012,0,.017a4.707,4.707,0,0,0,4.7,4.684H73.789a1.1,1.1,0,0,0,0-2.193H33.306a2.511,2.511,0,0,1-2.432-1.9L56.789,56.525l3.855-2.118a2.5,2.5,0,0,1,2.417,0l3.854,2.118L92.832,70.767a2.512,2.512,0,0,1-2.432,1.9H78.568a1.1,1.1,0,0,0,0,2.193H90.4a4.708,4.708,0,0,0,4.7-4.684c0-.006,0-.012,0-.017ZM60.182,2.835a2.5,2.5,0,0,1,3.341,0l7.948,7.8H52.234ZM34.336,32.128l-1.983-1.979L34.336,28.2Zm54.711,3.42,3.7-3.69a2.553,2.553,0,0,1,.165.893V68.307l-23.656-13Zm2.3-5.4-1.983,1.979V28.2Z" transform="translate(-28.603 0)" fill="#881335"/>
  </g>
</svg>
