<svg id="delete_1" xmlns="http://www.w3.org/2000/svg" width="20.432" height="25.163" viewBox="0 0 20.432 25.163">
  <path id="Path_19156" data-name="Path 19156" d="M27.785,62.3a1.65,1.65,0,1,1,0,3.3H11.85a1.65,1.65,0,1,1,0-3.3Zm0,0" transform="translate(-9.6 -58.63)" fill="#00acea"/>
  <path id="Path_19157" data-name="Path 19157" d="M54.665,118.325V133.34a2.4,2.4,0,0,1-2.357,2.534H41.158A2.4,2.4,0,0,1,38.8,133.34V118.3H54.665Zm0,0" transform="translate(-36.516 -111.329)" fill="#00efd1"/>
  <g id="Group_16452" data-name="Group 16452">
    <path id="Path_19573" data-name="Path 19573" d="M7.688.487,6.32,1.268,5.93,2.753v.821H14.8l-.273-2.11-1.8-.977Z" fill="#fedb41"/>
    <path id="Path_19158" data-name="Path 19158" d="M222.991,154.7a.589.589,0,0,0-.589.589V166.43a.589.589,0,1,0,1.179,0V155.292A.589.589,0,0,0,222.991,154.7Zm0,0" transform="translate(-209.296 -145.586)" fill="#083863"/>
    <path id="Path_19159" data-name="Path 19159" d="M104.991,154.7a.589.589,0,0,0-.589.589V166.43a.589.589,0,1,0,1.179,0V155.292A.589.589,0,0,0,104.991,154.7Zm0,0" transform="translate(-98.25 -145.586)" fill="#083863"/>
    <path id="Path_19160" data-name="Path 19160" d="M1.674,7.49V22.009a3.251,3.251,0,0,0,.864,2.242,2.9,2.9,0,0,0,2.106.91h11.15a2.9,2.9,0,0,0,2.106-.91,3.251,3.251,0,0,0,.865-2.242V7.491A2.368,2.368,0,0,0,19.782,6.9a2.256,2.256,0,0,0-1.6-3.84H15.169V2.327A2.315,2.315,0,0,0,12.835,0H7.6A2.315,2.315,0,0,0,5.268,2.327v.737H2.251A2.251,2.251,0,0,0,1.674,7.49Zm14.12,16.493H4.644a1.866,1.866,0,0,1-1.791-1.974V7.542H17.585V22.009a1.866,1.866,0,0,1-1.792,1.974ZM6.447,2.327A1.135,1.135,0,0,1,7.6,1.177h5.233A1.135,1.135,0,0,1,13.99,2.327v.737H6.447ZM1.5,4.562a1.064,1.064,0,0,1,.75-.32H18.186a1.07,1.07,0,0,1,1.061,1.07,1.053,1.053,0,0,1-1.061,1.052H2.251A1.058,1.058,0,0,1,1.19,5.307a1.045,1.045,0,0,1,.31-.745Zm0,0" transform="translate(0 0.001)" fill="#083863"/>
    <path id="Path_19161" data-name="Path 19161" d="M163.991,154.7a.589.589,0,0,0-.589.589V166.43a.589.589,0,0,0,1.179,0V155.292A.589.589,0,0,0,163.991,154.7Zm0,0" transform="translate(-153.773 -145.586)" fill="#083863"/>
  </g>
</svg>
