<svg id="edit_1" xmlns="http://www.w3.org/2000/svg" width="21.457" height="21.347" viewBox="0 0 21.457 21.347">
  <path id="Path_19151" data-name="Path 19151" d="M306.6,11.424a1.869,1.869,0,0,1,0,2.644l-.945.945-3.272-3.272.945-.945a1.87,1.87,0,0,1,2.645,0Zm0,0" transform="translate(-286.221 -9.716)" fill="#00acea"/>
  <path id="Path_19152" data-name="Path 19152" d="M154.049,41.452l-8.558,8.558h0l-3.272-3.272,8.558-8.558Zm0,0" transform="translate(-134.619 -36.154)" fill="#00efd1"/>
  <path id="Path_19153" data-name="Path 19153" d="M119.476,198.34l3.272,3.272-.03.03-4.525,1.254,1.253-4.526Zm0,0" transform="translate(-111.875 -187.756)" fill="#fedb41"/>
  <g id="Group_16451" data-name="Group 16451">
    <path id="Path_19154" data-name="Path 19154" d="M19.8,50.478a.534.534,0,0,0-.534.534v4.745a1.6,1.6,0,0,1-1.6,1.6H2.672a1.6,1.6,0,0,1-1.6-1.6V41.832a1.6,1.6,0,0,1,1.6-1.6H7.416a.534.534,0,1,0,0-1.069H2.672A2.675,2.675,0,0,0,0,41.832V55.757a2.675,2.675,0,0,0,2.672,2.672H17.665a2.675,2.675,0,0,0,2.672-2.672V51.012A.534.534,0,0,0,19.8,50.478Zm0,0" transform="translate(0 -37.082)" fill="#083863"/>
    <path id="Path_19155" data-name="Path 19155" d="M122.535.973a2.408,2.408,0,0,0-3.4,0L109.6,10.506a.537.537,0,0,0-.137.235l-1.253,4.526a.534.534,0,0,0,.658.658l4.526-1.254a.535.535,0,0,0,.235-.137l.03-.03,9.5-9.5a2.4,2.4,0,0,0,0-3.4Zm-12.273,10.89,2.01,2.01-2.78.77Zm3.019,2.263h0l.348.348Zm0-.756-2.517-2.517,7.8-7.8,2.516,2.516Zm9.125-9.125-.567.567L119.323,2.3l.567-.567a1.337,1.337,0,0,1,1.889,0l.627.628a1.335,1.335,0,0,1,0,1.889Zm0,0" transform="translate(-102.409 -0.27)" fill="#083863"/>
  </g>
</svg>
