<svg xmlns="http://www.w3.org/2000/svg" width="65.92" height="74.62" viewBox="0 0 65.92 74.62">
  <g id="Registered_Citizen" data-name="Registered Citizen" transform="translate(-1112 -1998.86)">
    <path id="Path_19524" data-name="Path 19524" d="M83.015,74.5H42.207a4.86,4.86,0,0,1-4.86-4.86V12.36a4.86,4.86,0,0,1,4.86-4.86H83.015a4.86,4.86,0,0,1,4.86,4.86V69.641A4.86,4.86,0,0,1,83.015,74.5Z" transform="translate(1075.746 1992.453)" fill="#7cccf2"/>
    <path id="Path_19525" data-name="Path 19525" d="M327.2,7.5h-4.008a4.86,4.86,0,0,1,4.86,4.86V69.641a4.86,4.86,0,0,1-4.86,4.86H327.2a4.86,4.86,0,0,0,4.86-4.86V12.36A4.86,4.86,0,0,0,327.2,7.5Z" transform="translate(831.56 1992.453)" fill="#4facdb"/>
    <path id="Path_19526" data-name="Path 19526" d="M120.367,304.974H86.019a1.166,1.166,0,0,1-1.166-1.166V299.35a1.166,1.166,0,0,1,1.166-1.166h34.348a1.166,1.166,0,0,1,1.166,1.166v4.458A1.166,1.166,0,0,1,120.367,304.974Z" transform="translate(1035.163 1744.134)" fill="#ebeef2"/>
    <path id="Path_19527" data-name="Path 19527" d="M277.788,281.974a2.892,2.892,0,0,0-2.852,1.986.15.15,0,0,1-.286,0,2.892,2.892,0,0,0-5.5,0,.149.149,0,0,1-.284,0,2.891,2.891,0,0,0-5.639.9v-9.779a2.936,2.936,0,0,0-2.785-2.958,2.891,2.891,0,0,0-3,2.889v17.677l-4.861-5.793a2.783,2.783,0,0,0-4.163-.182h0a3.437,3.437,0,0,0-.2,4.543l9.222,10.991v2.257a1.484,1.484,0,0,0,1.484,1.484h14.447a7.2,7.2,0,0,0,7.2-7.2V284.932A2.936,2.936,0,0,0,277.788,281.974Z" transform="translate(896.253 1766.396)" fill="#f6bb93"/>
    <path id="Path_19528" data-name="Path 19528" d="M410.473,339.7a2.88,2.88,0,0,0-1.755.515,2.994,2.994,0,0,1,1.261,2.444v13.863a7.2,7.2,0,0,1-7.2,7.2h3.279a7.2,7.2,0,0,0,7.2-7.2V342.657A2.936,2.936,0,0,0,410.473,339.7Z" transform="translate(763.568 1708.671)" fill="#e49775"/>
    <path id="Path_19529" data-name="Path 19529" d="M94.988,388.162H87.15a2.3,2.3,0,0,1-2.3-2.3v-1.69a2.3,2.3,0,0,1,2.3-2.3h7.838a2.3,2.3,0,0,1,2.3,2.3v1.69A2.3,2.3,0,0,1,94.988,388.162Z" transform="translate(1035.163 1672.638)" fill="#f4d34c"/>
    <path id="Path_19530" data-name="Path 19530" d="M120.367,215.858H86.019a1.166,1.166,0,0,1-1.166-1.166v-4.458a1.166,1.166,0,0,1,1.166-1.166h34.348a1.166,1.166,0,0,1,1.166,1.166v4.458A1.166,1.166,0,0,1,120.367,215.858Z" transform="translate(1035.163 1820.262)" fill="#ebeef2"/>
    <g id="Group_16736" data-name="Group 16736" transform="translate(1112 1998.86)">
      <path id="Path_19531" data-name="Path 19531" d="M219.287,2.186H237.5a3.771,3.771,0,0,1,3.767,3.767V45.211a1.093,1.093,0,0,0,2.186,0V5.953A5.96,5.96,0,0,0,237.5,0H219.287a1.093,1.093,0,0,0,0,2.186Z" transform="translate(-190.744)" fill="#881335"/>
      <path id="Path_19532" data-name="Path 19532" d="M65.182,67H35.8a3.771,3.771,0,0,1-3.767-3.767V5.953A3.771,3.771,0,0,1,35.8,2.186H54.018a1.093,1.093,0,1,0,0-2.186H35.8a5.96,5.96,0,0,0-5.953,5.953V63.234A5.96,5.96,0,0,0,35.8,69.188H65.182a1.093,1.093,0,1,0,0-2.186Z" transform="translate(-29.847)" fill="#881335"/>
      <path id="Path_19533" data-name="Path 19533" d="M226.719,52.831a1.093,1.093,0,0,0,1.093-1.093V50.4h1.342a1.093,1.093,0,1,0,0-2.186h-1.342V46.867a1.093,1.093,0,1,0-2.186,0v1.342h-1.342a1.093,1.093,0,0,0,0,2.186h1.342v1.342A1.093,1.093,0,0,0,226.719,52.831Z" transform="translate(-195.012 -39.103)" fill="#881335"/>
      <path id="Path_19535" data-name="Path 19535" d="M143.354,52.376a9.814,9.814,0,0,0,19.629,0,1.093,1.093,0,0,0-2.186,0,7.628,7.628,0,1,1-7.628-7.628,1.093,1.093,0,1,0,0-2.186A9.825,9.825,0,0,0,143.354,52.376Z" transform="translate(-126.811 -36.359)" fill="#881335"/>
      <path id="Path_19536" data-name="Path 19536" d="M135.254,284.716a1.093,1.093,0,0,0,1.093-1.093v-5.1a3.981,3.981,0,0,0-6.871-2.81,3.992,3.992,0,0,0-5.786,0A3.988,3.988,0,0,0,119,274.9v-6.224a4,4,0,0,0-3.84-4.051,3.983,3.983,0,0,0-4.123,3.795H79.609a2.262,2.262,0,0,0-2.259,2.259v4.458a2.262,2.262,0,0,0,2.259,2.259h31.425v5.884l-2.931-3.493a3.876,3.876,0,0,0-5.773-.252,4.545,4.545,0,0,0-.263,6.018l8.966,10.686V298.1a2.58,2.58,0,0,0,2.577,2.577h14.447a8.3,8.3,0,0,0,8.288-8.288V288a1.093,1.093,0,0,0-2.186,0v4.391a6.109,6.109,0,0,1-6.1,6.1H113.611a.392.392,0,0,1-.391-.391v-2.257a1.093,1.093,0,0,0-.256-.7l-9.222-10.991a2.346,2.346,0,0,1,.134-3.067,1.691,1.691,0,0,1,2.553.111l4.861,5.793a1.093,1.093,0,0,0,1.93-.7V268.606a1.8,1.8,0,0,1,1.864-1.8,1.849,1.849,0,0,1,1.731,1.866v9.779a1.093,1.093,0,1,0,2.186,0,1.8,1.8,0,0,1,3.507-.559,1.24,1.24,0,0,0,1.181.858h0a1.24,1.24,0,0,0,1.181-.858,1.8,1.8,0,0,1,3.419,0,1.24,1.24,0,0,0,1.179.857h0a1.244,1.244,0,0,0,1.184-.859,1.806,1.806,0,0,1,1.775-1.235,1.849,1.849,0,0,1,1.731,1.866v5.1A1.093,1.093,0,0,0,135.254,284.716ZM79.609,275.21a.074.074,0,0,1-.073-.073v-4.458a.075.075,0,0,1,.073-.073h31.425v4.6Z" transform="translate(-70.427 -226.055)" fill="#881335"/>
      <path id="Path_19537" data-name="Path 19537" d="M88.581,382.848a3.394,3.394,0,0,0,3.39-3.39v-1.69a3.394,3.394,0,0,0-3.39-3.39H80.743a3.394,3.394,0,0,0-3.39,3.39v1.69a3.394,3.394,0,0,0,3.39,3.39Zm-9.042-3.39v-1.69a1.205,1.205,0,0,1,1.2-1.2h7.838a1.205,1.205,0,0,1,1.2,1.2v1.69a1.205,1.205,0,0,1-1.2,1.2H80.743A1.205,1.205,0,0,1,79.539,379.458Z" transform="translate(-70.429 -319.815)" fill="#881335"/>
      <path id="Path_19538" data-name="Path 19538" d="M79.613,201.568a2.262,2.262,0,0,0-2.259,2.259v4.458a2.262,2.262,0,0,0,2.259,2.259h34.348a2.262,2.262,0,0,0,2.259-2.259v-4.458a2.262,2.262,0,0,0-2.259-2.259Zm34.421,2.259v4.458a.073.073,0,0,1-.073.073H79.613a.073.073,0,0,1-.073-.073v-4.458a.073.073,0,0,1,.073-.073h34.348A.073.073,0,0,1,114.034,203.827Z" transform="translate(-70.43 -172.191)" fill="#881335"/>
      <path id="Path_19539" data-name="Path 19539" d="M106.419,313.979h-.291a1.093,1.093,0,1,0,0,2.186h.291a1.093,1.093,0,1,0,0-2.186Z" transform="translate(-94.076 -268.219)" fill="#881335"/>
      <path id="Path_19540" data-name="Path 19540" d="M137.085,313.979h-.291a1.093,1.093,0,1,0,0,2.186h.291a1.093,1.093,0,1,0,0-2.186Z" transform="translate(-120.273 -268.219)" fill="#881335"/>
      <path id="Path_19541" data-name="Path 19541" d="M167.752,313.979h-.291a1.093,1.093,0,1,0,0,2.186h.291a1.093,1.093,0,1,0,0-2.186Z" transform="translate(-146.47 -268.219)" fill="#881335"/>
      <path id="Path_19542" data-name="Path 19542" d="M198.419,313.979h-.291a1.093,1.093,0,0,0,0,2.186h.291a1.093,1.093,0,1,0,0-2.186Z" transform="translate(-172.668 -268.219)" fill="#881335"/>
      <path id="Path_19543" data-name="Path 19543" d="M229.085,313.979h-.291a1.093,1.093,0,1,0,0,2.186h.291a1.093,1.093,0,0,0,0-2.186Z" transform="translate(-198.865 -268.219)" fill="#881335"/>
    </g>
  </g>
</svg>
