<svg id="Resolved_Grievances" data-name="Resolved Grievances" xmlns="http://www.w3.org/2000/svg" width="71.097" height="73.243" viewBox="0 0 71.097 73.243">
  <path id="Path_19544" data-name="Path 19544" d="M338.458,130.014h4.292V67.5H317Z" transform="translate(-272.725 -57.844)" fill="#c5f3ff"/>
  <path id="Path_19545" data-name="Path 19545" d="M150,419.234h45.348v-4.292L150,405Z" transform="translate(-129.615 -347.064)" fill="#e5faff"/>
  <path id="Path_19546" data-name="Path 19546" d="M308.458,100.014h4.292V37.5H287Z" transform="translate(-247.017 -32.136)" fill="#14cfff"/>
  <path id="Path_19547" data-name="Path 19547" d="M120,375h45.348v14.234H120Z" transform="translate(-103.907 -321.355)" fill="#5addff"/>
  <path id="Path_19548" data-name="Path 19548" d="M25.729,263.6H15a6.437,6.437,0,0,0,6.437,6.437H68.931V245Z" transform="translate(-13.927 -209.952)" fill="#a0ecff"/>
  <path id="Path_19549" data-name="Path 19549" d="M381.292,7.5,377,11.792v54.35a6.438,6.438,0,0,0,8.583-6.07V7.5Z" transform="translate(-324.142 -6.427)" fill="#c5f3ff"/>
  <path id="Path_19550" data-name="Path 19550" d="M90,7.5V60.072h36.765a6.439,6.439,0,0,0,4.292,6.07,6.439,6.439,0,0,0,4.292-6.07V7.5Z" transform="translate(-78.198 -6.427)" fill="#e5faff"/>
  <path id="Path_19551" data-name="Path 19551" d="M278.5,281.25h14.091v4.292H278.5Z" transform="translate(-239.733 -241.016)" fill="#fff"/>
  <path id="Path_19552" data-name="Path 19552" d="M263.5,79.875v23.282a11.641,11.641,0,1,0,0-23.282Z" transform="translate(-226.878 -68.449)" fill="#23aeec"/>
  <path id="Path_19553" data-name="Path 19553" d="M201.115,91.516c0-6.429-3.29-11.641-7.349-11.641a11.641,11.641,0,1,0,0,23.282C197.825,103.157,201.115,97.945,201.115,91.516Z" transform="translate(-157.144 -68.449)" fill="#14cfff"/>
  <path id="Path_19554" data-name="Path 19554" d="M226.267,127a2.146,2.146,0,0,0-3.035,0l-5.3,5.3L216.9,131.27a2.186,2.186,0,0,0-3-.115,2.146,2.146,0,0,0-.075,3.106l2.591,2.591a2.146,2.146,0,0,0,3.035,0l6.822-6.822A2.146,2.146,0,0,0,226.267,127Z" transform="translate(-183.766 -108.291)" fill="#fff"/>
  <path id="Path_19555" data-name="Path 19555" d="M77.524,8.583H74.306V5.364a1.073,1.073,0,0,0-1.073-1.073H70.014V1.073A1.073,1.073,0,0,0,68.941,0H19.3a1.073,1.073,0,0,0-1.073,1.073V45.017a1.1,1.1,0,0,0,1.04,1.117,1.073,1.073,0,0,0,1.106-1.072V2.146H67.868v51.4a5.43,5.43,0,0,1-5.433,5.466,5.371,5.371,0,0,1-5.3-5.368,1.081,1.081,0,0,0-1.088-1.069H20.375V49.4a1.1,1.1,0,0,0-1.04-1.117,1.073,1.073,0,0,0-1.106,1.072v3.219H8.573A1.07,1.07,0,0,0,7.5,53.634a7.519,7.519,0,0,0,7.51,7.522h7.51v6.723a1.073,1.073,0,0,0,1.073,1.073h3.219V72.17a1.073,1.073,0,0,0,1.073,1.073H77.524A1.073,1.073,0,0,0,78.6,72.17V9.656A1.073,1.073,0,0,0,77.524,8.583ZM15.01,59.009a5.374,5.374,0,0,1-5.257-4.292H55.07a7.5,7.5,0,0,0,2.183,4.292ZM76.452,71.1H28.958V68.952H73.233a1.073,1.073,0,0,0,1.073-1.073V18.284a1.1,1.1,0,0,0-1.04-1.117,1.073,1.073,0,0,0-1.106,1.072V66.806H24.666V61.155H62.5a7.51,7.51,0,0,0,7.51-7.51V6.437H72.16V13.9A1.1,1.1,0,0,0,73.2,15.02a1.073,1.073,0,0,0,1.106-1.072V10.729h2.146Z" transform="translate(-7.5)" fill="#881335"/>
  <path id="Path_19556" data-name="Path 19556" d="M271,274.823v4.292a1.073,1.073,0,0,0,1.073,1.073h14.091a1.073,1.073,0,0,0,1.073-1.073v-4.292a1.073,1.073,0,0,0-1.073-1.073H272.073A1.073,1.073,0,0,0,271,274.823Zm2.146,1.073h11.945v2.146H273.146Z" transform="translate(-233.305 -234.589)" fill="#881335"/>
  <path id="Path_19557" data-name="Path 19557" d="M187.339,72.375a12.714,12.714,0,1,0,12.714,12.714A12.728,12.728,0,0,0,187.339,72.375Zm0,23.282a10.568,10.568,0,1,1,10.568-10.568A10.58,10.58,0,0,1,187.339,95.657Z" transform="translate(-150.717 -62.022)" fill="#881335"/>
  <path id="Path_19558" data-name="Path 19558" d="M216.047,119.82l-4.546,4.546-.272-.272a3.245,3.245,0,0,0-4.483-.15,3.192,3.192,0,0,0-1.054,2.306,3.233,3.233,0,0,0,.942,2.352l2.591,2.591a3.223,3.223,0,0,0,4.552,0l6.822-6.822a3.219,3.219,0,1,0-4.552-4.552Zm3.035,3.035-6.822,6.822a1.073,1.073,0,0,1-1.517,0l-2.591-2.591a1.073,1.073,0,0,1,.039-1.554,1.031,1.031,0,0,1,.7-.262,1.167,1.167,0,0,1,.823.342l1.031,1.031a1.073,1.073,0,0,0,1.517,0l5.3-5.3a1.073,1.073,0,0,1,1.517,1.517Z" transform="translate(-177.34 -101.873)" fill="#881335"/>
  <path id="Path_19559" data-name="Path 19559" d="M142.5,274.823a1.073,1.073,0,0,0,1.073,1.073h14.091a1.073,1.073,0,1,0,0-2.146H143.573A1.073,1.073,0,0,0,142.5,274.823Z" transform="translate(-123.188 -234.589)" fill="#881335"/>
  <path id="Path_19560" data-name="Path 19560" d="M143.573,305.9h14.091a1.073,1.073,0,1,0,0-2.146H143.573a1.073,1.073,0,0,0,0,2.146Z" transform="translate(-123.188 -260.298)" fill="#881335"/>
</svg>
