<svg id="Unsatisfied_Citizen" data-name="Unsatisfied Citizen" xmlns="http://www.w3.org/2000/svg" width="79.652" height="79.652" viewBox="0 0 79.652 79.652">
  <g id="Group_16403" data-name="Group 16403" transform="translate(1.167 1.167)">
    <g id="Group_16402" data-name="Group 16402">
      <g id="Group_16396" data-name="Group 16396">
        <g id="Group_16395" data-name="Group 16395">
          <g id="Group_16394" data-name="Group 16394">
            <g id="Group_16393" data-name="Group 16393">
              <g id="Group_16392" data-name="Group 16392">
                <path id="Path_19083" data-name="Path 19083" d="M45.682,7.5A38.668,38.668,0,0,0,11.921,64.122l-3.8,17.771a1.939,1.939,0,0,0,2.3,2.3L28.2,80.4A38.662,38.662,0,1,0,45.682,7.5Z" transform="translate(-7.5 -7.5)" fill="#fc98a0"/>
                <g id="Group_16391" data-name="Group 16391" transform="translate(7.983 13.299)">
                  <circle id="Ellipse_361" data-name="Ellipse 361" cx="30.676" cy="30.676" r="30.676" fill="#ff808a"/>
                </g>
                <path id="Path_19084" data-name="Path 19084" d="M268.884,46.158a38.673,38.673,0,0,1-43.376,38.373,38.608,38.608,0,0,0-.031-76.746,39.328,39.328,0,0,1,4.748-.286,38.659,38.659,0,0,1,38.659,38.659Z" transform="translate(-191.566 -7.499)" fill="#ff6e7a"/>
              </g>
            </g>
          </g>
        </g>
      </g>
      <g id="Group_16401" data-name="Group 16401" transform="translate(7.596 7.596)">
        <circle id="Ellipse_362" data-name="Ellipse 362" cx="31.064" cy="31.064" r="31.064" fill="#f5f7f8"/>
        <g id="Group_16400" data-name="Group 16400" transform="translate(12.086 16.662)">
          <g id="Group_16399" data-name="Group 16399">
            <path id="Path_19085" data-name="Path 19085" d="M204.613,182.129v1.244a2.138,2.138,0,0,1-2.138,2.138H195.1a9.829,9.829,0,0,1,.685,3.6v4.453a4.266,4.266,0,0,1-4.266,4.266,2.978,2.978,0,0,1-2.978-2.959,10.218,10.218,0,0,0-4.733-8.348l-5.464-3.862a3.954,3.954,0,0,0-2.282-.725h-3.393V165.91h3.115a4.469,4.469,0,0,0,2.746-.943,7.3,7.3,0,0,1,4.484-1.54h17.809a2.138,2.138,0,0,1,2.138,2.138v1.244a2.138,2.138,0,0,1-2.138,2.138h.55a2.138,2.138,0,0,1,2.138,2.138v1.244a2.138,2.138,0,0,1-2.138,2.138h.55a2.138,2.138,0,0,1,2.138,2.138v1.244a2.138,2.138,0,0,1-2.138,2.138h.55A2.139,2.139,0,0,1,204.613,182.129Z" transform="translate(-166.658 -163.428)" fill="#ffcebf"/>
            <path id="Path_19086" data-name="Path 19086" d="M334.727,179.992h-.549a2.137,2.137,0,0,0,2.138-2.138V176.61a2.139,2.139,0,0,0-2.138-2.139h-.551a2.139,2.139,0,0,0,2.139-2.138v-1.245a2.139,2.139,0,0,0-2.139-2.138h-.549a2.139,2.139,0,0,0,2.138-2.139v-1.245a2.137,2.137,0,0,0-2.138-2.138H329.29a2.139,2.139,0,0,1,2.139,2.138v1.245a2.14,2.14,0,0,1-2.139,2.139h.551a2.137,2.137,0,0,1,2.138,2.138v1.245a2.137,2.137,0,0,1-2.138,2.138h.549a2.14,2.14,0,0,1,2.139,2.139v1.245a2.139,2.139,0,0,1-2.139,2.138h.551a2.139,2.139,0,0,1,2.138,2.139v1.245a2.137,2.137,0,0,1-2.138,2.138h3.787a2.139,2.139,0,0,0,2.139-2.138v-1.245A2.14,2.14,0,0,0,334.727,179.992Z" transform="translate(-298.91 -163.43)" fill="#fdb0a0"/>
            <path id="Path_19087" data-name="Path 19087" d="M288.834,313.434V308.98a9.832,9.832,0,0,0-.686-3.6h-3.787a9.831,9.831,0,0,1,.685,3.6v4.454a4.264,4.264,0,0,1-2.186,3.724,2.943,2.943,0,0,0,1.708.541A4.266,4.266,0,0,0,288.834,313.434Z" transform="translate(-259.704 -283.296)" fill="#fdb0a0"/>
            <g id="Group_16398" data-name="Group 16398" transform="translate(0 0)">
              <g id="Group_16397" data-name="Group 16397">
                <path id="Path_19088" data-name="Path 19088" d="M135.388,163.43h5.077a1.375,1.375,0,0,1,1.375,1.375v17.068a1.375,1.375,0,0,1-1.375,1.375h-5.077a1.375,1.375,0,0,1-1.375-1.375V164.8A1.375,1.375,0,0,1,135.388,163.43Z" transform="translate(-134.013 -163.43)" fill="#73a2da"/>
                <path id="Path_19089" data-name="Path 19089" d="M157.118,164.805v17.068a1.607,1.607,0,0,1-1.765,1.374H150.33a1.607,1.607,0,0,0,1.765-1.374V164.805a1.608,1.608,0,0,0-1.765-1.375h5.022A1.608,1.608,0,0,1,157.118,164.805Z" transform="translate(-149.292 -163.43)" fill="#8cbdf9"/>
              </g>
            </g>
          </g>
        </g>
        <path id="Path_19090" data-name="Path 19090" d="M248.2,87.392a31.09,31.09,0,0,1-38.222,30.234,30.243,30.243,0,0,0,0-60.468A31.09,31.09,0,0,1,248.2,87.392Z" transform="translate(-186.076 -56.328)" fill="#d9e7eb"/>
      </g>
    </g>
  </g>
  <g id="Group_16404" data-name="Group 16404" transform="translate(0)">
    <path id="Path_19091" data-name="Path 19091" d="M67.987,11.665A39.52,39.52,0,0,0,39.831,0c-.165,0-.332,0-.5,0A39.872,39.872,0,0,0,13.67,9.74,1.167,1.167,0,0,0,15.2,11.5,37.533,37.533,0,1,1,39.325,77.316a37.065,37.065,0,0,1-16.919-4.283,1.169,1.169,0,0,0-.787-.108L3.849,76.72a.772.772,0,0,1-.916-.916l3.8-17.771a1.167,1.167,0,0,0-.108-.787A37.066,37.066,0,0,1,2.337,40.327a37.516,37.516,0,0,1,9.006-24.942,1.167,1.167,0,0,0-1.771-1.519A39.851,39.851,0,0,0,0,40.358a39.369,39.369,0,0,0,4.356,17.6L.651,75.316A3.106,3.106,0,0,0,4.336,79L21.7,75.293a39.364,39.364,0,0,0,17.6,4.355c.181,0,.361,0,.542,0A39.826,39.826,0,0,0,67.987,11.665Z" transform="translate(0)" fill="#881335"/>
    <path id="Path_19092" data-name="Path 19092" d="M166.8,175.8a3.3,3.3,0,0,0-1.1-2.457,3.285,3.285,0,0,0,.547-1.819v-1.245a3.3,3.3,0,0,0-1.1-2.457A3.285,3.285,0,0,0,165.7,166v-1.244a3.3,3.3,0,0,0-1.1-2.457,3.285,3.285,0,0,0,.547-1.819v-1.244a3.309,3.309,0,0,0-3.3-3.3h-8.714a1.167,1.167,0,0,0,0,2.334h8.714a.972.972,0,0,1,.971.971v1.244a.972.972,0,0,1-.971.971h-2.615a1.167,1.167,0,0,0,0,2.334H162.4a.972.972,0,0,1,.971.971V166a.972.972,0,0,1-.971.971h-2.615a1.167,1.167,0,0,0,0,2.334h3.165a.972.972,0,0,1,.971.971v1.245a.972.972,0,0,1-.971.971h-2.615a1.167,1.167,0,1,0,0,2.334H163.5a.972.972,0,0,1,.971.971v1.244a.972.972,0,0,1-.971.971H153.044a1.167,1.167,0,0,0,0,2.334h2.247a8.6,8.6,0,0,1,.351,2.434v4.453a3.1,3.1,0,0,1-3.1,3.1,1.816,1.816,0,0,1-1.811-1.8,11.426,11.426,0,0,0-5.226-9.293l-5.464-3.862a5.1,5.1,0,0,0-2.956-.939h-.415V160.747h.136a5.663,5.663,0,0,0,3.462-1.189,6.161,6.161,0,0,1,3.767-1.293h3.449a1.167,1.167,0,1,0,0-2.334h-3.449a8.5,8.5,0,0,0-5.2,1.786,3.318,3.318,0,0,1-2.029.7h-.139a2.543,2.543,0,0,0-2.538-2.482h-5.077a2.544,2.544,0,0,0-2.541,2.541v17.068a2.544,2.544,0,0,0,2.541,2.541h5.077a2.542,2.542,0,0,0,2.22-1.308h.736a2.773,2.773,0,0,1,1.609.511l5.464,3.862a9.042,9.042,0,0,1,4.239,7.4,4.155,4.155,0,0,0,4.145,4.118,5.439,5.439,0,0,0,5.433-5.433v-4.453a10.933,10.933,0,0,0-.273-2.434H163.5a3.309,3.309,0,0,0,3.3-3.3V175.8Zm-32.671-.05h-5.077a.208.208,0,0,1-.208-.208V158.472a.208.208,0,0,1,.208-.208h5.077a.208.208,0,0,1,.208.208V175.54A.208.208,0,0,1,134.131,175.748Z" transform="translate(-106.83 -131.673)" fill="#881335"/>
    <path id="Path_19093" data-name="Path 19093" d="M152.833,182.234a1.167,1.167,0,0,0-1.167,1.167v.016a1.167,1.167,0,1,0,2.334,0V183.4A1.167,1.167,0,0,0,152.833,182.234Z" transform="translate(-128.071 -153.884)" fill="#881335"/>
    <path id="Path_19094" data-name="Path 19094" d="M110.822,78.283a1.167,1.167,0,0,0,2.324-.213,32.233,32.233,0,1,0,.01,5.855,1.167,1.167,0,1,0-2.325-.205,29.893,29.893,0,1,1-.009-5.437Z" transform="translate(-41.227 -41.228)" fill="#881335"/>
    <path id="Path_19095" data-name="Path 19095" d="M348.526,337.54a1.167,1.167,0,0,0,1.167-1.167v-.7h.7a1.167,1.167,0,1,0,0-2.334h-.7v-.7a1.167,1.167,0,1,0-2.334,0v.7h-.7a1.167,1.167,0,0,0,0,2.334h.7v.7A1.167,1.167,0,0,0,348.526,337.54Z" transform="translate(-291.744 -279.907)" fill="#881335"/>
  </g>
</svg>
