<svg id="view_icon__1" data-name="view icon _1" xmlns="http://www.w3.org/2000/svg" width="28.129" height="17.122" viewBox="0 0 28.129 17.122">
  <path id="Path_19467" data-name="Path 19467" d="M160.432,180.836a4.892,4.892,0,0,0-9.751-.509h0a4.892,4.892,0,1,0,9.751.507Zm0,0" transform="translate(-141.463 -172.331)" fill="#00efd1"/>
  <path id="Path_19468" data-name="Path 19468" d="M202.085,226a1.834,1.834,0,1,1-1.835,1.835A1.837,1.837,0,0,1,202.085,226Zm0,0" transform="translate(-188.035 -219.274)" fill="#fedb41"/>
  <path id="Path_19469" data-name="Path 19469" d="M161.112,197.223a.611.611,0,1,0-.612-.611A.612.612,0,0,0,161.112,197.223Zm0,0" transform="translate(-150.716 -191.109)" fill="#083863"/>
  <path id="Path_19476" data-name="Path 19476" d="M4.4,129a15.858,15.858,0,0,0,10.161,4.119A15.858,15.858,0,0,0,24.726,129a22.2,22.2,0,0,0,3.8-4.1.612.612,0,0,0,0-.683,22.205,22.205,0,0,0-3.8-4.1A15.858,15.858,0,0,0,14.565,116,15.858,15.858,0,0,0,4.4,120.12a22.217,22.217,0,0,0-3.8,4.1.612.612,0,0,0,0,.683A22.218,22.218,0,0,0,4.4,129Zm.79-7.949a14.883,14.883,0,0,1,9.371-3.83,14.87,14.87,0,0,1,9.345,3.808,22.288,22.288,0,0,1,3.353,3.53,22.221,22.221,0,0,1-3.328,3.507,14.883,14.883,0,0,1-9.371,3.83,14.868,14.868,0,0,1-9.345-3.808,22.286,22.286,0,0,1-3.353-3.53,22.193,22.193,0,0,1,3.327-3.508Zm0,0" transform="translate(-0.501 -116)" fill="#083863"/>
  <path id="Path_19477" data-name="Path 19477" d="M146,177.007a5.5,5.5,0,1,0-1.97-10.644.614.614,0,1,0,.5,1.118,4.281,4.281,0,1,1-2.813,4.022,4.451,4.451,0,0,1,.071-.781.612.612,0,0,0-1.2-.225A5.509,5.509,0,0,0,146,177.007Zm0,0" transform="translate(-131.939 -162.943)" fill="#083863"/>
  <path id="Path_19478" data-name="Path 19478" d="M195.392,218.446a2.446,2.446,0,1,0-2.446,2.446A2.449,2.449,0,0,0,195.392,218.446Zm-3.669,0a1.223,1.223,0,1,1,1.223,1.223A1.224,1.224,0,0,1,191.723,218.446Zm0,0" transform="translate(-178.882 -209.885)" fill="#083863"/>
</svg>
